<svg width="118" height="114" viewBox="0 0 118 114" fill="none" xmlns="http://www.w3.org/2000/svg">
<path d="M26.8035 13.5893C36.2128 12.8226 46.0032 12.8614 55.3231 14.5376C59.4497 15.2755 63.728 16.6967 66.378 20.1455C68.8068 23.2979 69.2802 27.4568 69.0822 31.3102C68.8493 35.8065 67.8677 40.2648 66.9123 44.6461C65.8384 49.5609 64.651 54.4508 63.8548 59.4208C62.5451 67.5487 62.326 76.2351 65.3257 84.0358C68.9741 93.5203 77.3602 99.4719 85.5576 104.821C86.2114 105.243 87.1781 105.487 87.9339 105.217C88.55 104.999 88.7438 104.437 88.1342 104.035C80.6599 99.0147 72.7986 93.7291 69.1178 85.1557C65.6908 77.1784 65.9069 68.2058 67.2644 59.7969C68.0768 54.772 69.2763 49.8164 70.3442 44.8365C71.3226 40.2877 72.3406 35.6323 72.4475 30.9629C72.5341 27.139 71.9062 23.2214 69.6149 20.0603C66.949 16.3728 62.5182 14.4461 58.2355 13.4057C53.0271 12.1489 47.5669 11.7568 42.2355 11.5122C36.6027 11.2642 30.9542 11.3828 25.3397 11.8373C24.7498 11.8805 24.1187 12.2877 24.5362 12.8961C24.9537 13.5044 26.1305 13.6392 26.8035 13.5893V13.5893Z" fill="black"/>
<path d="M71.4122 103.281C75.3758 104.63 79.3321 105.976 83.2992 107.318C85.1505 107.947 86.9971 108.644 88.8748 109.196C90.5397 109.686 92.4041 109.974 94.056 109.301C94.2527 109.221 94.6642 109.061 94.6718 108.771C94.6839 106.498 93.698 104.518 92.7577 102.497C91.7076 100.248 90.6931 97.9789 89.7001 95.7023C87.6899 91.0846 85.8153 86.404 84.0589 81.6793C83.6733 80.6493 80.4219 80.4341 80.8301 81.5902C82.4592 86.2036 84.2312 90.7574 86.1429 95.259C87.0903 97.4793 88.07 99.6876 89.0819 101.884C90.0101 103.873 91.206 105.939 91.204 108.19L91.8198 107.66C90.6042 108.158 89.2635 107.405 88.1064 107.013L83.0185 105.276C79.5653 104.097 76.1014 102.922 72.6482 101.743C72.0639 101.539 70.8066 101.385 70.3934 101.999C69.956 102.645 70.9929 103.126 71.4377 103.284L71.4122 103.281Z" fill="black"/>
</svg>
