<svg width="17" height="9" viewBox="0 0 17 9" fill="none" xmlns="http://www.w3.org/2000/svg">
<path d="M8.5 9C8.30867 9 8.12356 8.96565 7.94466 8.89694C7.76481 8.82824 7.6151 8.73664 7.49552 8.62214L0.894618 2.30153C0.631539 2.04962 0.5 1.72901 0.5 1.33969C0.5 0.950381 0.631539 0.62977 0.894618 0.377862C1.1577 0.125954 1.49253 0 1.8991 0C2.30568 0 2.64051 0.125954 2.90359 0.377862L8.5 5.73664L14.0964 0.377862C14.3595 0.125954 14.6943 0 15.1009 0C15.5075 0 15.8423 0.125954 16.1054 0.377862C16.3685 0.62977 16.5 0.950381 16.5 1.33969C16.5 1.72901 16.3685 2.04962 16.1054 2.30153L9.50448 8.62214C9.36099 8.75954 9.20553 8.85664 9.03812 8.91343C8.8707 8.97114 8.69133 9 8.5 9Z" fill="#252CDE"/>
</svg>
