<svg width="27" height="23" viewBox="0 0 27 23" fill="none" xmlns="http://www.w3.org/2000/svg">
<path d="M22.8031 0.733286C23.2696 0.257752 23.8905 -0.00514188 24.5347 7.62187e-05C25.1789 0.00529432 25.796 0.278217 26.2558 0.761255C26.7156 1.24429 26.9821 1.89966 26.9991 2.58908C27.0162 3.27849 26.7823 3.94803 26.347 4.4564L13.1316 22.15C12.9044 22.4121 12.6301 22.6224 12.3252 22.7683C12.0203 22.9143 11.6911 22.9929 11.3572 22.9995C11.0232 23.0062 10.6915 22.9406 10.3818 22.8068C10.072 22.6731 9.79068 22.4738 9.55453 22.221L0.790633 12.8387C0.546573 12.5953 0.350819 12.3017 0.215048 11.9754C0.0792776 11.6492 0.00627153 11.2971 0.000386591 10.94C-0.00549835 10.5829 0.0558585 10.2283 0.180795 9.89712C0.305732 9.56598 0.491691 9.26517 0.727576 9.01264C0.963462 8.76011 1.24444 8.56104 1.55376 8.42728C1.86307 8.29353 2.19438 8.22785 2.52792 8.23415C2.86146 8.24045 3.1904 8.3186 3.49512 8.46395C3.79983 8.6093 4.07407 8.81887 4.30149 9.08015L11.2371 16.5016L22.7401 0.811295C22.7608 0.783996 22.7796 0.757951 22.8031 0.733286Z" fill="#252CDE"/>
</svg>
