<svg width="30" height="32" viewBox="0 0 30 32" fill="none" xmlns="http://www.w3.org/2000/svg">
<g filter="url(#filter0_d_1_1444)">
<rect x="5" y="2.5" width="20" height="20" rx="2" fill="white" stroke="#212121" stroke-width="2"/>
<path d="M19.9792 7.3507C20.2039 7.12327 20.5028 6.99754 20.813 7.00004C21.1232 7.00253 21.4203 7.13306 21.6417 7.36408C21.8631 7.5951 21.9914 7.90853 21.9996 8.23825C22.0078 8.56797 21.8952 8.88819 21.6856 9.13132L15.3226 17.5935C15.2132 17.7188 15.0812 17.8194 14.9344 17.8892C14.7876 17.959 14.629 17.9966 14.4683 17.9998C14.3075 18.0029 14.1478 17.9716 13.9986 17.9076C13.8495 17.8436 13.714 17.7483 13.6003 17.6274L9.38068 13.1403C9.26316 13.0238 9.16891 12.8834 9.10354 12.7274C9.03817 12.5714 9.00302 12.403 9.00019 12.2322C8.99735 12.0614 9.02689 11.8918 9.08705 11.7334C9.1472 11.575 9.23674 11.4312 9.35031 11.3104C9.46389 11.1896 9.59918 11.0944 9.7481 11.0304C9.89703 10.9665 10.0566 10.9351 10.2171 10.9381C10.3777 10.9411 10.5361 10.9785 10.6828 11.048C10.8295 11.1175 10.9616 11.2177 11.0711 11.3427L14.4105 14.892L19.9489 7.38801C19.9589 7.37495 19.968 7.3625 19.9792 7.3507Z" fill="#252CDE"/>
</g>
<defs>
<filter id="filter0_d_1_1444" x="-1" y="0.5" width="32" height="32" filterUnits="userSpaceOnUse" color-interpolation-filters="sRGB">
<feFlood flood-opacity="0" result="BackgroundImageFix"/>
<feColorMatrix in="SourceAlpha" type="matrix" values="0 0 0 0 0 0 0 0 0 0 0 0 0 0 0 0 0 0 127 0" result="hardAlpha"/>
<feOffset dy="4"/>
<feGaussianBlur stdDeviation="2"/>
<feComposite in2="hardAlpha" operator="out"/>
<feColorMatrix type="matrix" values="0 0 0 0 0 0 0 0 0 0 0 0 0 0 0 0 0 0 0.25 0"/>
<feBlend mode="normal" in2="BackgroundImageFix" result="effect1_dropShadow_1_1444"/>
<feBlend mode="normal" in="SourceGraphic" in2="effect1_dropShadow_1_1444" result="shape"/>
</filter>
</defs>
</svg>
