<svg width="83" height="53" viewBox="0 0 83 53" fill="none" xmlns="http://www.w3.org/2000/svg">
<path d="M29.2236 6.44336C29.2236 6.24023 29.2236 6.00326 29.2236 5.73242C29.2236 5.46159 29.249 5.20768 29.2998 4.9707C29.3506 4.7168 29.4352 4.51367 29.5537 4.36133C29.6891 4.19206 29.9007 4.10742 30.1885 4.10742C30.3239 4.10742 30.4339 4.22591 30.5186 4.46289C30.6201 4.69987 30.6963 5.01302 30.7471 5.40234C30.7979 5.77474 30.8402 6.18945 30.874 6.64648C30.9079 7.10352 30.9248 7.54362 30.9248 7.9668C30.9417 8.38997 30.9502 8.77083 30.9502 9.10938C30.9671 9.44792 30.9756 9.67643 30.9756 9.79492C31.0094 10.235 31.0687 10.6836 31.1533 11.1406C31.2549 11.5807 31.348 12.0293 31.4326 12.4863C31.5342 12.9434 31.6188 13.3919 31.6865 13.832C31.7712 14.2721 31.8135 14.6953 31.8135 15.1016C31.221 15.1016 30.7471 14.9746 30.3916 14.7207C30.0361 14.4668 29.7653 14.1283 29.5791 13.7051C29.4098 13.2819 29.2998 12.7995 29.249 12.2578C29.1982 11.6992 29.1813 11.1406 29.1982 10.582C29.2152 10.0065 29.2321 9.43945 29.249 8.88086C29.2829 8.30534 29.2829 7.78906 29.249 7.33203V7.20508C29.249 7.12044 29.2406 7.03581 29.2236 6.95117C29.2236 6.86654 29.2236 6.7819 29.2236 6.69727V6.44336ZM32.2451 4.51367C32.2451 4.41211 32.2451 4.24284 32.2451 4.00586C32.2282 3.76888 32.2282 3.50651 32.2451 3.21875C32.262 2.93099 32.279 2.63477 32.2959 2.33008C32.3298 2.00846 32.389 1.72917 32.4736 1.49219C32.5583 1.23828 32.6598 1.02669 32.7783 0.857422C32.8968 0.688151 33.0576 0.603516 33.2607 0.603516C33.5146 0.603516 33.7093 0.688151 33.8447 0.857422C33.9801 1.02669 34.0479 1.22135 34.0479 1.44141C34.0479 1.91536 34.0225 2.3724 33.9717 2.8125C33.9378 3.2526 33.8955 3.69271 33.8447 4.13281C33.7939 4.55599 33.7601 4.99609 33.7432 5.45312C33.7262 5.89323 33.7347 6.35026 33.7686 6.82422C33.7347 6.85807 33.6501 6.90885 33.5146 6.97656C33.3962 7.04427 33.3115 7.07812 33.2607 7.07812C33.0576 7.07812 32.8883 6.97656 32.7529 6.77344C32.6344 6.55339 32.5329 6.29948 32.4482 6.01172C32.3805 5.70703 32.3298 5.41927 32.2959 5.14844C32.262 4.86068 32.2451 4.64909 32.2451 4.51367ZM49.1553 9.28711C48.6475 9.28711 48.2074 9.39714 47.835 9.61719C47.4795 9.82031 47.1494 10.0827 46.8447 10.4043C46.54 10.709 46.2607 11.0475 46.0068 11.4199C45.7529 11.7923 45.4821 12.1393 45.1943 12.4609C44.9235 12.7656 44.6273 13.028 44.3057 13.248C43.984 13.4512 43.6117 13.5527 43.1885 13.5527C43.1885 13.2311 43.18 12.8672 43.1631 12.4609C43.1462 12.0547 43.1038 11.64 43.0361 11.2168C42.9684 10.7936 42.8753 10.3789 42.7568 9.97266C42.6383 9.54948 42.4691 9.18555 42.249 8.88086C42.029 8.55924 41.7497 8.30534 41.4111 8.11914C41.0895 7.91602 40.7002 7.81445 40.2432 7.81445C39.6676 7.81445 39.1683 7.94987 38.7451 8.2207C38.3389 8.49154 37.9919 8.83854 37.7041 9.26172C37.4333 9.6849 37.2301 10.1589 37.0947 10.6836C36.9593 11.1914 36.8916 11.6992 36.8916 12.207C36.6715 12.207 36.5023 12.2324 36.3838 12.2832C36.2822 12.3171 36.1722 12.3594 36.0537 12.4102C35.9521 12.4609 35.8421 12.5117 35.7236 12.5625C35.6221 12.6133 35.4697 12.6387 35.2666 12.6387C35.2666 12.2155 35.2327 11.8008 35.165 11.3945C35.0973 10.9714 35.0296 10.5566 34.9619 10.1504C34.8942 9.74414 34.8265 9.33789 34.7588 8.93164C34.708 8.52539 34.6826 8.11914 34.6826 7.71289V7.53516C34.6826 7.45052 34.6826 7.36589 34.6826 7.28125C34.6995 7.17969 34.708 7.09505 34.708 7.02734V6.82422C34.7588 6.6888 34.8265 6.61263 34.9111 6.5957C34.9958 6.57878 35.0889 6.57031 35.1904 6.57031C35.4105 6.57031 35.5798 6.65495 35.6982 6.82422C35.8167 6.99349 35.9098 7.19661 35.9775 7.43359C36.0452 7.65365 36.0876 7.88216 36.1045 8.11914C36.1383 8.33919 36.1637 8.49154 36.1807 8.57617H36.4346C36.9762 7.83138 37.6025 7.27279 38.3135 6.90039C39.0413 6.52799 39.8538 6.3418 40.751 6.3418C41.3604 6.3418 41.8682 6.47721 42.2744 6.74805C42.6976 7.01888 43.0531 7.35742 43.3408 7.76367C43.6286 8.16992 43.8656 8.62695 44.0518 9.13477C44.238 9.62565 44.4157 10.0996 44.585 10.5566H44.8389C45.2113 10.2181 45.5921 9.87956 45.9814 9.54102C46.3877 9.20247 46.7939 8.91471 47.2002 8.67773C47.6234 8.42383 48.0635 8.2207 48.5205 8.06836C48.9945 7.89909 49.5107 7.81445 50.0693 7.81445C50.4756 7.81445 50.848 7.94987 51.1865 8.2207C51.542 8.47461 51.8551 8.81315 52.126 9.23633C52.4137 9.65951 52.6592 10.1335 52.8623 10.6582C53.0654 11.166 53.2347 11.6908 53.3701 12.2324C53.5055 12.7741 53.6071 13.2904 53.6748 13.7812C53.7425 14.2721 53.7764 14.7038 53.7764 15.0762C53.1501 15.0762 52.693 14.9323 52.4053 14.6445C52.1175 14.3568 51.9059 14.0013 51.7705 13.5781C51.6351 13.138 51.542 12.6725 51.4912 12.1816C51.4404 11.6738 51.3473 11.2083 51.2119 10.7852C51.0765 10.362 50.8564 10.0065 50.5518 9.71875C50.2471 9.43099 49.7816 9.28711 49.1553 9.28711ZM0.824219 34.0684C0.824219 33.8483 0.883464 33.6283 1.00195 33.4082C1.13737 33.1882 1.33203 33.0781 1.58594 33.0781C1.90755 33.0781 2.1276 33.2051 2.24609 33.459C2.38151 33.7129 2.46615 34.0176 2.5 34.373C2.55078 34.7116 2.56771 35.0671 2.55078 35.4395C2.53385 35.7949 2.54232 36.0827 2.57617 36.3027C2.57617 36.4212 2.5931 36.6243 2.62695 36.9121C2.67773 37.1829 2.72852 37.4792 2.7793 37.8008C2.83008 38.1055 2.88086 38.4017 2.93164 38.6895C2.98242 38.9772 3.02474 39.1803 3.05859 39.2988C3.07552 39.2988 3.13477 39.3073 3.23633 39.3242C3.35482 39.3411 3.42253 39.3496 3.43945 39.3496C3.76107 39.3496 4.0319 39.2565 4.25195 39.0703C4.47201 38.8672 4.64974 38.6302 4.78516 38.3594C4.9375 38.0716 5.06445 37.7585 5.16602 37.4199C5.28451 37.0814 5.40299 36.7767 5.52148 36.5059C5.6569 36.2181 5.80924 35.9811 5.97852 35.7949C6.16471 35.6087 6.38477 35.5156 6.63867 35.5156C6.99414 35.5156 7.29036 35.6172 7.52734 35.8203C7.78125 36.0234 8.01823 36.2773 8.23828 36.582C8.47526 36.8698 8.68685 37.1914 8.87305 37.5469C9.07617 37.8854 9.29622 38.207 9.5332 38.5117C9.78711 38.7995 10.0579 39.0449 10.3457 39.248C10.6335 39.4512 10.9635 39.5527 11.3359 39.5527C11.3529 39.5527 11.4121 39.5443 11.5137 39.5273C11.6322 39.5104 11.6999 39.502 11.7168 39.502C11.8691 39.2819 12.0215 38.9603 12.1738 38.5371C12.3262 38.1139 12.4785 37.6569 12.6309 37.166C12.8001 36.6582 12.9609 36.1504 13.1133 35.6426C13.2826 35.1348 13.4434 34.6693 13.5957 34.2461C13.765 33.806 13.9342 33.459 14.1035 33.2051C14.2728 32.9512 14.4251 32.8242 14.5605 32.8242C14.5775 32.8242 14.5859 32.8242 14.5859 32.8242C14.6029 32.8242 14.6283 32.8242 14.6621 32.8242H14.6875C14.7214 32.8411 14.7552 32.875 14.7891 32.9258C14.8398 32.9596 14.8906 33.0104 14.9414 33.0781C15.0091 33.1289 15.0599 33.1797 15.0938 33.2305C15.1445 33.2812 15.1784 33.3151 15.1953 33.332V33.3828C15.1953 33.3997 15.1953 33.4167 15.1953 33.4336C15.2122 33.4505 15.2207 33.459 15.2207 33.459C15.2207 33.459 15.2122 33.4759 15.1953 33.5098C15.1953 33.5436 15.1953 33.569 15.1953 33.5859C15.1445 33.7214 15.0768 33.9414 14.9922 34.2461C14.9076 34.5339 14.806 34.8639 14.6875 35.2363C14.569 35.6087 14.4505 36.0065 14.332 36.4297C14.2135 36.8359 14.0951 37.2337 13.9766 37.623C13.8581 38.0124 13.748 38.3509 13.6465 38.6387C13.5449 38.9264 13.4772 39.1465 13.4434 39.2988C13.3249 39.5697 13.2064 39.8151 13.0879 40.0352C12.9863 40.2214 12.8763 40.3906 12.7578 40.543C12.6562 40.6953 12.5632 40.7715 12.4785 40.7715H9.99023C9.78711 40.7715 9.57552 40.6953 9.35547 40.543C9.15234 40.3906 8.94922 40.2044 8.74609 39.9844C8.5599 39.7474 8.36523 39.4935 8.16211 39.2227C7.97591 38.9349 7.79818 38.6641 7.62891 38.4102C7.45964 38.1562 7.29883 37.9277 7.14648 37.7246C6.99414 37.5215 6.86719 37.3776 6.76562 37.293C6.41016 37.513 6.13086 37.75 5.92773 38.0039C5.72461 38.2578 5.55534 38.5286 5.41992 38.8164C5.28451 39.0872 5.15755 39.3581 5.03906 39.6289C4.92057 39.8828 4.76823 40.1198 4.58203 40.3398C4.39583 40.543 4.15039 40.7038 3.8457 40.8223C3.55794 40.9408 3.16016 41 2.65234 41C2.48307 41 2.3138 40.8477 2.14453 40.543C1.99219 40.2383 1.84831 39.8574 1.71289 39.4004C1.57747 38.9434 1.45052 38.4355 1.33203 37.877C1.23047 37.3184 1.13737 36.7852 1.05273 36.2773C0.985026 35.7526 0.925781 35.2956 0.875 34.9062C0.841146 34.5169 0.824219 34.2376 0.824219 34.0684ZM23.4727 39.7559C23.2018 39.7559 22.9141 39.7982 22.6094 39.8828C22.3216 39.9505 22.0339 40.0352 21.7461 40.1367C21.4583 40.2383 21.1536 40.3314 20.832 40.416C20.5273 40.4837 20.2142 40.5176 19.8926 40.5176C19.4017 40.5176 18.9277 40.4414 18.4707 40.2891C18.0137 40.1367 17.6074 39.9082 17.252 39.6035C16.9134 39.2988 16.6426 38.9349 16.4395 38.5117C16.2363 38.0716 16.1348 37.5807 16.1348 37.0391C16.1348 36.5651 16.2786 36.125 16.5664 35.7188C16.8711 35.3125 17.2435 34.974 17.6836 34.7031C18.1237 34.4323 18.5977 34.2207 19.1055 34.0684C19.6133 33.916 20.0703 33.8398 20.4766 33.8398C20.6628 33.8398 20.8913 33.8568 21.1621 33.8906C21.4499 33.9076 21.7546 33.9499 22.0762 34.0176C22.4147 34.0684 22.7533 34.1445 23.0918 34.2461C23.4303 34.3307 23.735 34.4492 24.0059 34.6016C24.2936 34.7539 24.5306 34.9316 24.7168 35.1348C24.9199 35.321 25.0384 35.541 25.0723 35.7949C25.0723 35.8796 25.0553 36.0319 25.0215 36.252C24.9876 36.4551 24.9622 36.6751 24.9453 36.9121C24.9284 37.1491 24.903 37.3776 24.8691 37.5977C24.8522 37.8008 24.8353 37.9531 24.8184 38.0547V38.207C24.8184 38.5794 24.903 38.8587 25.0723 39.0449C25.2415 39.2311 25.4447 39.3665 25.6816 39.4512C25.9355 39.5189 26.1979 39.5527 26.4688 39.5527H27.2812C27.5352 39.5527 27.696 39.5527 27.7637 39.5527C27.8314 39.5358 27.8737 39.5273 27.8906 39.5273C27.9245 39.5273 27.9668 39.5273 28.0176 39.5273C28.0853 39.5104 28.2546 39.502 28.5254 39.502C28.7454 39.502 28.9147 39.5443 29.0332 39.6289C29.1517 39.7135 29.2109 39.8913 29.2109 40.1621C29.2109 40.4499 29.1178 40.653 28.9316 40.7715C28.7454 40.89 28.5254 40.9661 28.2715 41C28.0176 41.0508 27.7637 41.0677 27.5098 41.0508C27.2559 41.0339 27.0612 41.0254 26.9258 41.0254C26.5365 41.0254 26.1641 40.9577 25.8086 40.8223C25.4701 40.6868 25.1569 40.543 24.8691 40.3906C24.5814 40.2214 24.319 40.0775 24.082 39.959C23.8451 39.8236 23.6419 39.7559 23.4727 39.7559ZM17.6328 37.293C17.6328 37.6992 17.7174 38.0293 17.8867 38.2832C18.0729 38.5202 18.293 38.6979 18.5469 38.8164C18.8177 38.918 19.1139 38.9857 19.4355 39.0195C19.7572 39.0365 20.0703 39.0449 20.375 39.0449C20.4935 39.0449 20.6882 39.0365 20.959 39.0195C21.2467 39.0026 21.543 38.9688 21.8477 38.918C22.1523 38.8503 22.4232 38.7656 22.6602 38.6641C22.9141 38.5625 23.0579 38.4355 23.0918 38.2832L23.5996 36.3027C23.6335 36.1673 23.5996 36.0488 23.498 35.9473C23.3965 35.8457 23.2526 35.7611 23.0664 35.6934C22.8971 35.6257 22.7025 35.5664 22.4824 35.5156C22.2793 35.4648 22.0762 35.4225 21.873 35.3887C21.6699 35.3548 21.4837 35.3294 21.3145 35.3125C21.1621 35.2956 21.069 35.2871 21.0352 35.2871C20.7305 35.2871 20.375 35.321 19.9688 35.3887C19.5794 35.4395 19.207 35.541 18.8516 35.6934C18.513 35.8288 18.2253 36.0234 17.9883 36.2773C17.7513 36.5312 17.6328 36.8698 17.6328 37.293ZM30.0996 40.7715C29.9811 40.4329 29.8711 40.069 29.7695 39.6797C29.6849 39.2734 29.6087 38.8587 29.541 38.4355C29.4902 38.0124 29.4479 37.5977 29.4141 37.1914C29.3802 36.7852 29.3633 36.4043 29.3633 36.0488C29.3633 35.998 29.3717 35.9049 29.3887 35.7695C29.4056 35.6172 29.4225 35.4648 29.4395 35.3125C29.4733 35.1602 29.5072 35.0163 29.541 34.8809C29.5749 34.7285 29.6003 34.627 29.6172 34.5762C29.6341 34.5592 29.7103 34.5423 29.8457 34.5254C29.9811 34.5085 30.0658 34.5 30.0996 34.5C30.3197 34.5 30.4974 34.6185 30.6328 34.8555C30.7682 35.0924 30.8867 35.3971 30.9883 35.7695C31.0898 36.1419 31.1576 36.5566 31.1914 37.0137C31.2422 37.4538 31.2845 37.8854 31.3184 38.3086C31.3522 38.7148 31.3691 39.0788 31.3691 39.4004C31.3691 39.722 31.3691 39.9421 31.3691 40.0605C31.3691 40.1113 31.3691 40.196 31.3691 40.3145C31.3861 40.416 31.3861 40.526 31.3691 40.6445C31.3522 40.7461 31.3099 40.8307 31.2422 40.8984C31.1914 40.9661 31.0983 41 30.9629 41H30.8613C30.8275 41 30.7767 40.9915 30.709 40.9746C30.6413 40.9408 30.5651 40.9154 30.4805 40.8984C30.3958 40.8646 30.3197 40.8392 30.252 40.8223C30.1842 40.8053 30.1335 40.7884 30.0996 40.7715ZM29.8203 29.5742C29.8203 29.151 30.0911 28.8379 30.6328 28.6348C30.7513 28.584 30.8529 28.6009 30.9375 28.6855C31.0391 28.7702 31.1152 28.8802 31.166 29.0156C31.2337 29.151 31.276 29.2949 31.293 29.4473C31.3268 29.5827 31.3438 29.6842 31.3438 29.752C31.3438 29.8535 31.3184 29.9382 31.2676 30.0059C31.2168 30.0566 31.1491 30.0905 31.0645 30.1074C30.9967 30.1243 30.9206 30.1328 30.8359 30.1328H30.6328C30.3958 30.1328 30.2012 30.1074 30.0488 30.0566C29.8965 30.0059 29.8203 29.8451 29.8203 29.5742ZM35.3809 34.373C34.9069 34.373 34.4668 34.4154 34.0605 34.5C33.6712 34.5677 33.2396 34.6016 32.7656 34.6016C32.5794 34.6016 32.4609 34.5339 32.4102 34.3984C32.3594 34.2461 32.334 34.1022 32.334 33.9668V33.8398C32.3678 33.7721 32.4186 33.6875 32.4863 33.5859C32.571 33.4844 32.6556 33.3913 32.7402 33.3066C32.8249 33.2051 32.8926 33.1204 32.9434 33.0527C33.0111 32.985 33.0534 32.9512 33.0703 32.9512H35.4062V29.1426C35.4062 29.0749 35.4316 29.0241 35.4824 28.9902C35.5332 28.9564 35.5924 28.931 35.6602 28.9141C35.7448 28.8802 35.821 28.8633 35.8887 28.8633C35.9564 28.8464 36.0072 28.8379 36.041 28.8379C36.3118 28.8379 36.5065 28.9395 36.625 29.1426C36.7604 29.3288 36.8451 29.5658 36.8789 29.8535C36.9297 30.1413 36.9466 30.4544 36.9297 30.793C36.9297 31.1315 36.9297 31.4447 36.9297 31.7324C36.9297 32.0202 36.9466 32.2741 36.9805 32.4941C37.0312 32.6973 37.1328 32.8073 37.2852 32.8242C37.4206 32.8411 37.6745 32.875 38.0469 32.9258C38.4362 32.9596 38.834 33.0104 39.2402 33.0781C39.6634 33.1289 40.0612 33.1797 40.4336 33.2305C40.806 33.2812 41.0768 33.3151 41.2461 33.332C41.2799 33.332 41.3392 33.349 41.4238 33.3828C41.5254 33.3997 41.627 33.4167 41.7285 33.4336C41.847 33.4505 41.9486 33.4759 42.0332 33.5098C42.1178 33.5436 42.1771 33.569 42.2109 33.5859C42.2448 33.5859 42.2956 33.6198 42.3633 33.6875C42.431 33.7552 42.4648 33.806 42.4648 33.8398C42.4648 33.9583 42.431 34.0684 42.3633 34.1699C42.2956 34.2715 42.2109 34.3561 42.1094 34.4238C42.0078 34.4746 41.8978 34.5169 41.7793 34.5508C41.6777 34.5677 41.5762 34.5762 41.4746 34.5762C41.4408 34.5762 41.3477 34.5677 41.1953 34.5508C41.043 34.5169 40.8822 34.4831 40.7129 34.4492C40.5605 34.4154 40.4082 34.39 40.2559 34.373C40.1204 34.3392 40.0358 34.3223 40.002 34.3223H39.748C39.5957 34.3223 39.4349 34.3223 39.2656 34.3223C39.0964 34.3223 38.9271 34.3223 38.7578 34.3223H38.0723C37.9538 34.3223 37.8353 34.3223 37.7168 34.3223C37.5983 34.3223 37.4967 34.3223 37.4121 34.3223H37.2852L37.0312 34.5762C37.0312 34.5931 37.0312 34.6523 37.0312 34.7539C37.0312 34.8555 37.0228 34.974 37.0059 35.1094C36.9889 35.2448 36.972 35.3887 36.9551 35.541C36.9551 35.6764 36.9551 35.7865 36.9551 35.8711C36.9551 36.7852 37.0482 37.5046 37.2344 38.0293C37.4206 38.554 37.7083 38.9518 38.0977 39.2227C38.5039 39.4766 39.0117 39.6374 39.6211 39.7051C40.2474 39.7559 41.0091 39.7812 41.9062 39.7812C42.0078 39.7812 42.1432 39.7812 42.3125 39.7812C42.4818 39.7812 42.651 39.7812 42.8203 39.7812C42.9896 39.7812 43.1335 39.7812 43.252 39.7812C43.3704 39.7643 43.4382 39.7559 43.4551 39.7559C43.472 39.7559 43.5143 39.7474 43.582 39.7305C43.6497 39.6966 43.7259 39.6712 43.8105 39.6543C43.9121 39.6204 43.9883 39.5866 44.0391 39.5527C44.1068 39.5189 44.1576 39.502 44.1914 39.502C44.2591 39.502 44.3099 39.5358 44.3438 39.6035C44.3945 39.6543 44.4284 39.722 44.4453 39.8066C44.4622 39.8913 44.4707 39.9674 44.4707 40.0352V40.2129C44.4707 40.4837 44.4115 40.6784 44.293 40.7969C44.1745 40.9154 43.8952 40.9831 43.4551 41H43.0234C42.8203 41 42.6087 41 42.3887 41C42.1855 41.0169 41.974 41.0254 41.7539 41.0254H41.373C40.4082 41.0254 39.5872 40.9915 38.9102 40.9238C38.2331 40.8392 37.6745 40.7122 37.2344 40.543C36.7943 40.3568 36.4473 40.1113 36.1934 39.8066C35.9395 39.502 35.7533 39.1042 35.6348 38.6133C35.5332 38.1224 35.4655 37.5299 35.4316 36.8359C35.3978 36.1419 35.3809 35.321 35.3809 34.373ZM46.1719 40.7715C46.0534 40.4329 45.9434 40.069 45.8418 39.6797C45.7572 39.2734 45.681 38.8587 45.6133 38.4355C45.5625 38.0124 45.5202 37.5977 45.4863 37.1914C45.4525 36.7852 45.4355 36.4043 45.4355 36.0488C45.4355 35.998 45.444 35.9049 45.4609 35.7695C45.4779 35.6172 45.4948 35.4648 45.5117 35.3125C45.5456 35.1602 45.5794 35.0163 45.6133 34.8809C45.6471 34.7285 45.6725 34.627 45.6895 34.5762C45.7064 34.5592 45.7826 34.5423 45.918 34.5254C46.0534 34.5085 46.138 34.5 46.1719 34.5C46.3919 34.5 46.5697 34.6185 46.7051 34.8555C46.8405 35.0924 46.959 35.3971 47.0605 35.7695C47.1621 36.1419 47.2298 36.5566 47.2637 37.0137C47.3145 37.4538 47.3568 37.8854 47.3906 38.3086C47.4245 38.7148 47.4414 39.0788 47.4414 39.4004C47.4414 39.722 47.4414 39.9421 47.4414 40.0605C47.4414 40.1113 47.4414 40.196 47.4414 40.3145C47.4583 40.416 47.4583 40.526 47.4414 40.6445C47.4245 40.7461 47.3822 40.8307 47.3145 40.8984C47.2637 40.9661 47.1706 41 47.0352 41H46.9336C46.8997 41 46.849 40.9915 46.7812 40.9746C46.7135 40.9408 46.6374 40.9154 46.5527 40.8984C46.4681 40.8646 46.3919 40.8392 46.3242 40.8223C46.2565 40.8053 46.2057 40.7884 46.1719 40.7715ZM45.8926 29.5742C45.8926 29.151 46.1634 28.8379 46.7051 28.6348C46.8236 28.584 46.9251 28.6009 47.0098 28.6855C47.1113 28.7702 47.1875 28.8802 47.2383 29.0156C47.306 29.151 47.3483 29.2949 47.3652 29.4473C47.3991 29.5827 47.416 29.6842 47.416 29.752C47.416 29.8535 47.3906 29.9382 47.3398 30.0059C47.2891 30.0566 47.2214 30.0905 47.1367 30.1074C47.069 30.1243 46.9928 30.1328 46.9082 30.1328H46.7051C46.4681 30.1328 46.2734 30.1074 46.1211 30.0566C45.9688 30.0059 45.8926 29.8451 45.8926 29.5742ZM54.5254 35.541C53.9329 35.541 53.4082 35.651 52.9512 35.8711C52.5111 36.0742 52.1133 36.3451 51.7578 36.6836C51.4023 37.0221 51.1061 37.3861 50.8691 37.7754C50.6322 38.1478 50.4206 38.5033 50.2344 38.8418C50.0651 39.1803 49.9297 39.4596 49.8281 39.6797C49.7435 39.8997 49.6842 40.0098 49.6504 40.0098C49.1934 40.0098 48.8717 39.8913 48.6855 39.6543C48.4993 39.4173 48.3809 39.1296 48.3301 38.791C48.2793 38.4355 48.2708 38.0716 48.3047 37.6992C48.3555 37.3099 48.3809 36.9714 48.3809 36.6836V36.252C48.3809 36.0488 48.3809 35.8372 48.3809 35.6172C48.3978 35.3971 48.4062 35.194 48.4062 35.0078V34.5762C48.457 34.4408 48.5247 34.3646 48.6094 34.3477C48.694 34.3307 48.7871 34.3223 48.8887 34.3223C49.041 34.3223 49.168 34.4154 49.2695 34.6016C49.3711 34.7708 49.4642 34.9824 49.5488 35.2363C49.6335 35.4902 49.7012 35.7441 49.752 35.998C49.8027 36.235 49.8451 36.4212 49.8789 36.5566C50.082 36.5228 50.2682 36.4382 50.4375 36.3027C50.6068 36.1673 50.776 36.0065 50.9453 35.8203C51.1315 35.6341 51.3262 35.4395 51.5293 35.2363C51.7324 35.0332 51.9694 34.847 52.2402 34.6777C52.5111 34.4915 52.8242 34.3392 53.1797 34.2207C53.5521 34.1022 53.9753 34.043 54.4492 34.043C55.3971 34.043 56.1758 34.2546 56.7852 34.6777C57.3945 35.084 57.86 35.6257 58.1816 36.3027C58.5202 36.9629 58.7487 37.7161 58.8672 38.5625C58.9857 39.3919 59.0449 40.2383 59.0449 41.1016C58.5371 41.1016 58.1393 41.0254 57.8516 40.873C57.5807 40.7038 57.3861 40.4922 57.2676 40.2383C57.1491 39.9674 57.0814 39.6712 57.0645 39.3496C57.0475 39.0111 57.0391 38.6725 57.0391 38.334C57.0391 37.9785 57.0137 37.6315 56.9629 37.293C56.929 36.9544 56.8275 36.6582 56.6582 36.4043C56.5059 36.1504 56.2604 35.9473 55.9219 35.7949C55.6003 35.6257 55.1348 35.541 54.5254 35.541ZM59.7051 47.1445C59.9082 47.1445 60.0944 47.2376 60.2637 47.4238C60.4499 47.627 60.6276 47.8555 60.7969 48.1094C60.9661 48.3633 61.127 48.6172 61.2793 48.8711C61.4316 49.1419 61.5924 49.3281 61.7617 49.4297C62.1172 49.7174 62.515 49.9544 62.9551 50.1406C63.4121 50.3268 63.8776 50.4707 64.3516 50.5723C64.8255 50.6908 65.2995 50.7754 65.7734 50.8262C66.2643 50.8939 66.7383 50.9277 67.1953 50.9277C67.2292 50.9277 67.2884 50.9193 67.373 50.9023C67.4746 50.9023 67.5762 50.9023 67.6777 50.9023C67.7793 50.9023 67.8724 50.8939 67.957 50.877C68.0586 50.877 68.1263 50.877 68.1602 50.877C68.4141 50.7585 68.6087 50.5977 68.7441 50.3945C68.8965 50.2083 68.998 49.9967 69.0488 49.7598C69.1165 49.5397 69.1589 49.3027 69.1758 49.0488C69.1927 48.7949 69.2012 48.541 69.2012 48.2871C69.2012 48.1009 69.1842 47.7793 69.1504 47.3223C69.1335 46.8822 69.0996 46.3574 69.0488 45.748C68.998 45.1556 68.9303 44.5293 68.8457 43.8691C68.778 43.209 68.6764 42.5827 68.541 41.9902C68.4225 41.3978 68.2702 40.8815 68.084 40.4414C67.8978 40.0013 67.6862 39.6966 67.4492 39.5273C67.2799 39.7135 67.1107 39.8997 66.9414 40.0859C66.7721 40.2552 66.5775 40.4076 66.3574 40.543C66.1543 40.6784 65.9427 40.7884 65.7227 40.873C65.5026 40.9577 65.2572 41 64.9863 41C64.4447 41 63.8691 40.9408 63.2598 40.8223C62.6504 40.7038 62.0833 40.5007 61.5586 40.2129C61.0339 39.9251 60.6022 39.5612 60.2637 39.1211C59.9251 38.6641 59.7559 38.097 59.7559 37.4199C59.7559 36.7936 59.9251 36.2689 60.2637 35.8457C60.6022 35.4056 61.0169 35.0586 61.5078 34.8047C62.0156 34.5339 62.5658 34.3392 63.1582 34.2207C63.7507 34.1022 64.3092 34.043 64.834 34.043C65.0033 34.043 65.2064 34.0514 65.4434 34.0684C65.6973 34.0684 65.9512 34.0853 66.2051 34.1191C66.459 34.153 66.696 34.2038 66.916 34.2715C67.1361 34.3392 67.3138 34.4408 67.4492 34.5762C67.4661 34.61 67.4831 34.7031 67.5 34.8555C67.5339 34.9909 67.5592 35.1432 67.5762 35.3125C67.61 35.4818 67.6354 35.6426 67.6523 35.7949C67.6693 35.9473 67.6777 36.0319 67.6777 36.0488C67.7454 36.3535 67.8385 36.6497 67.957 36.9375C68.0924 37.2083 68.2363 37.4961 68.3887 37.8008C68.541 38.0885 68.6849 38.3763 68.8203 38.6641C68.9557 38.9518 69.0658 39.2396 69.1504 39.5273C69.6074 40.9831 69.9798 42.4303 70.2676 43.8691C70.5553 45.3079 70.6992 46.7891 70.6992 48.3125C70.6992 48.3802 70.6908 48.4987 70.6738 48.668C70.6738 48.8542 70.6738 49.0404 70.6738 49.2266C70.6738 49.4297 70.6654 49.6159 70.6484 49.7852C70.6484 49.9714 70.6484 50.0983 70.6484 50.166C70.6315 50.6061 70.4961 50.9701 70.2422 51.2578C69.9883 51.5625 69.6751 51.791 69.3027 51.9434C68.9473 52.1126 68.5579 52.2311 68.1348 52.2988C67.7285 52.3835 67.3646 52.4258 67.043 52.4258C66.5013 52.4258 65.9342 52.375 65.3418 52.2734C64.7663 52.1888 64.2077 52.0534 63.666 51.8672C63.1243 51.681 62.6081 51.444 62.1172 51.1562C61.6432 50.8854 61.2285 50.5553 60.873 50.166C60.5176 49.7767 60.2298 49.3366 60.0098 48.8457C59.8066 48.3548 59.7051 47.7878 59.7051 47.1445ZM61.2285 37.5723C61.2285 37.9108 61.3301 38.207 61.5332 38.4609C61.7363 38.7148 61.9902 38.9264 62.2949 39.0957C62.5996 39.248 62.9212 39.3665 63.2598 39.4512C63.5983 39.5189 63.8945 39.5527 64.1484 39.5527C65.1133 39.5527 65.7819 39.3158 66.1543 38.8418C66.5267 38.3509 66.7129 37.64 66.7129 36.709C66.7129 36.4382 66.6621 36.2266 66.5605 36.0742C66.459 35.9049 66.3236 35.7865 66.1543 35.7188C65.985 35.651 65.7904 35.6087 65.5703 35.5918C65.3503 35.5579 65.1302 35.541 64.9102 35.541C64.6055 35.541 64.2415 35.5749 63.8184 35.6426C63.3952 35.6934 62.9889 35.7949 62.5996 35.9473C62.2272 36.0996 61.9056 36.3112 61.6348 36.582C61.3639 36.8359 61.2285 37.166 61.2285 37.5723ZM79.6875 33.8398C79.7383 33.0273 79.7637 32.3079 79.7637 31.6816C79.7637 31.0553 79.7383 30.4883 79.6875 29.9805C79.6536 29.4557 79.6029 28.9564 79.5352 28.4824C79.4674 28.0085 79.3997 27.5176 79.332 27.0098C79.2812 26.485 79.2305 25.9095 79.1797 25.2832C79.1458 24.6569 79.1289 23.9375 79.1289 23.125V22.9473C79.1289 22.8457 79.1289 22.7441 79.1289 22.6426C79.1458 22.541 79.1543 22.4395 79.1543 22.3379V22.1348C79.1712 22.1009 79.2135 22.0501 79.2812 21.9824C79.349 21.8978 79.4251 21.8216 79.5098 21.7539C79.5944 21.6693 79.6706 21.5931 79.7383 21.5254C79.806 21.4577 79.8568 21.4154 79.8906 21.3984C79.9076 21.3984 79.9753 21.4323 80.0938 21.5L80.3984 21.6523L80.6523 21.8809C80.6693 22.1686 80.6947 22.5156 80.7285 22.9219C80.7624 23.3281 80.7878 23.7682 80.8047 24.2422C80.8385 24.6992 80.8724 25.1732 80.9062 25.6641C80.9401 26.138 80.974 26.6035 81.0078 27.0605C81.0417 27.5176 81.0671 27.9492 81.084 28.3555C81.1009 28.7617 81.1263 29.1087 81.1602 29.3965C81.1771 29.4473 81.1855 29.5911 81.1855 29.8281C81.1855 30.0651 81.1771 30.3275 81.1602 30.6152C81.1602 30.8861 81.1602 31.1484 81.1602 31.4023V31.8594C81.1771 31.944 81.194 32.0794 81.2109 32.2656C81.2279 32.4349 81.2448 32.6296 81.2617 32.8496C81.2956 33.0527 81.321 33.2559 81.3379 33.459L81.3887 33.8398C81.2871 34.0599 81.1686 34.2038 81.0332 34.2715C80.9147 34.3223 80.7454 34.3477 80.5254 34.3477C80.3392 34.3477 80.1699 34.3223 80.0176 34.2715C79.8822 34.2038 79.7721 34.0599 79.6875 33.8398ZM79.3828 39.502C79.3828 39.2988 79.4336 39.1211 79.5352 38.9688C79.6367 38.7995 79.7637 38.6641 79.916 38.5625C80.0684 38.444 80.2461 38.3594 80.4492 38.3086C80.6523 38.2578 80.8555 38.2324 81.0586 38.2324C81.2617 38.2324 81.4395 38.2832 81.5918 38.3848C81.7611 38.4694 81.9049 38.5879 82.0234 38.7402C82.1589 38.8757 82.252 39.0365 82.3027 39.2227C82.3704 39.4089 82.4043 39.5951 82.4043 39.7812C82.4043 39.9674 82.3535 40.1367 82.252 40.2891C82.1504 40.4245 82.0065 40.5514 81.8203 40.6699C81.651 40.7715 81.4733 40.8561 81.2871 40.9238C81.1009 40.9746 80.9401 41 80.8047 41C80.3307 41 79.9753 40.8561 79.7383 40.5684C79.5013 40.2806 79.3828 39.9251 79.3828 39.502Z" fill="#212121"/>
</svg>
