<svg width="20" height="19" viewBox="0 0 20 19" fill="none" xmlns="http://www.w3.org/2000/svg">
<path d="M10 5C9.10998 5 8.23995 5.26392 7.49993 5.75839C6.75991 6.25285 6.18314 6.95566 5.84254 7.77792C5.50195 8.60019 5.41283 9.50499 5.58647 10.3779C5.7601 11.2508 6.18868 12.0526 6.81802 12.682C7.44736 13.3113 8.24918 13.7399 9.12209 13.9135C9.99501 14.0872 10.8998 13.9981 11.7221 13.6575C12.5443 13.3169 13.2471 12.7401 13.7416 12.0001C14.2361 11.26 14.5 10.39 14.5 9.5C14.5 8.30653 14.0259 7.16193 13.182 6.31802C12.3381 5.47411 11.1935 5 10 5ZM10 12.5C9.40666 12.5 8.82664 12.3241 8.33329 11.9944C7.83994 11.6648 7.45542 11.1962 7.22836 10.6481C7.0013 10.0999 6.94189 9.49667 7.05764 8.91473C7.1734 8.33279 7.45912 7.79824 7.87868 7.37868C8.29824 6.95912 8.83279 6.6734 9.41473 6.55764C9.99667 6.44189 10.5999 6.5013 11.1481 6.72836C11.6962 6.95542 12.1648 7.33994 12.4944 7.83329C12.8241 8.32664 13 8.90666 13 9.5C12.9975 10.2949 12.6807 11.0565 12.1186 11.6186C11.5565 12.1807 10.7949 12.4975 10 12.5ZM14.125 0.125H5.875C4.48261 0.125 3.14726 0.678123 2.16269 1.66269C1.17812 2.64726 0.625 3.98261 0.625 5.375V13.625C0.625 15.0174 1.17812 16.3527 2.16269 17.3373C3.14726 18.3219 4.48261 18.875 5.875 18.875H14.125C15.5174 18.875 16.8527 18.3219 17.8373 17.3373C18.8219 16.3527 19.375 15.0174 19.375 13.625V5.375C19.375 3.98261 18.8219 2.64726 17.8373 1.66269C16.8527 0.678123 15.5174 0.125 14.125 0.125ZM17.875 13.625C17.875 14.1175 17.778 14.6051 17.5895 15.0601C17.4011 15.515 17.1249 15.9284 16.7766 16.2766C16.4284 16.6249 16.015 16.9011 15.5601 17.0895C15.1051 17.278 14.6175 17.375 14.125 17.375H5.875C5.38254 17.375 4.89491 17.278 4.43994 17.0895C3.98497 16.9011 3.57157 16.6249 3.22335 16.2766C2.87513 15.9284 2.59891 15.515 2.41045 15.0601C2.222 14.6051 2.125 14.1175 2.125 13.625V5.375C2.125 4.38044 2.52009 3.42661 3.22335 2.72335C3.92661 2.02009 4.88044 1.625 5.875 1.625H14.125C14.6175 1.625 15.1051 1.722 15.5601 1.91045C16.015 2.09891 16.4284 2.37513 16.7766 2.72335C17.1249 3.07157 17.4011 3.48497 17.5895 3.93994C17.778 4.39491 17.875 4.88254 17.875 5.375V13.625ZM16 4.625C16 4.8475 15.934 5.06501 15.8104 5.25002C15.6868 5.43502 15.5111 5.57922 15.3055 5.66436C15.1 5.74951 14.8738 5.77179 14.6555 5.72838C14.4373 5.68498 14.2368 5.57783 14.0795 5.4205C13.9222 5.26316 13.815 5.06271 13.7716 4.84448C13.7282 4.62625 13.7505 4.40005 13.8356 4.19448C13.9208 3.98891 14.065 3.81321 14.25 3.6896C14.435 3.56598 14.6525 3.5 14.875 3.5C15.1734 3.5 15.4595 3.61853 15.6705 3.8295C15.8815 4.04048 16 4.32663 16 4.625Z" fill="#212121"/>
</svg>
