<svg width="115" height="41" viewBox="0 0 115 41" fill="none" xmlns="http://www.w3.org/2000/svg">
<path d="M1.02148 24.373V23.6094C1.02148 23.2109 1.01042 22.8014 0.988281 22.3809C0.988281 21.9603 0.988281 21.5508 0.988281 21.1523V19.3262C0.988281 18.8613 0.988281 18.4186 0.988281 17.998C1.01042 17.5553 1.02148 17.179 1.02148 16.8691V15.3418C1.02148 14.9876 1.03255 14.6445 1.05469 14.3125C1.09896 13.9805 1.16536 13.6595 1.25391 13.3496C1.34245 13.0176 1.47526 12.7077 1.65234 12.4199C1.76302 12.265 1.85156 12.1764 1.91797 12.1543C1.98438 12.11 2.11719 12.0879 2.31641 12.0879C2.40495 12.0879 2.52669 12.11 2.68164 12.1543C2.85872 12.1764 2.94727 12.265 2.94727 12.4199V22.7461C2.94727 23.1224 3.06901 23.3991 3.3125 23.5762C3.55599 23.7533 3.84375 23.875 4.17578 23.9414C4.52995 24.0078 4.88411 24.041 5.23828 24.041H6.13477C7.10872 24.041 8.09375 24.0078 9.08984 23.9414C10.0859 23.875 11.071 23.8086 12.0449 23.7422C13.0189 23.6536 13.9928 23.5872 14.9668 23.543C15.9629 23.4766 16.959 23.4434 17.9551 23.4434H18.3203C18.4531 23.4434 18.5417 23.4655 18.5859 23.5098C18.6523 23.554 18.6966 23.6426 18.7188 23.7754C18.763 23.9082 18.7852 24.1074 18.7852 24.373C18.7852 24.4395 18.7298 24.5169 18.6191 24.6055C18.5306 24.6719 18.431 24.7272 18.3203 24.7715C18.1654 24.86 17.9993 24.9486 17.8223 25.0371C17.5345 25.0592 17.0697 25.1035 16.4277 25.1699C15.8079 25.2142 15.0996 25.2695 14.3027 25.3359C13.528 25.4023 12.709 25.4688 11.8457 25.5352C10.9824 25.6016 10.1523 25.668 9.35547 25.7344C8.55859 25.8008 7.85026 25.8561 7.23047 25.9004C6.61068 25.9447 6.1569 25.9779 5.86914 26H4.20898C3.74414 26 3.30143 25.9557 2.88086 25.8672C2.48242 25.7786 2.11719 25.6237 1.78516 25.4023C1.45312 25.1589 1.19857 24.8158 1.02148 24.373ZM19.748 20.1562C19.748 19.4036 19.9583 18.6732 20.3789 17.9648C20.7995 17.2565 21.3307 16.6367 21.9727 16.1055C22.6367 15.5742 23.3561 15.1536 24.1309 14.8438C24.9277 14.5339 25.6803 14.3789 26.3887 14.3789C26.9642 14.3789 27.5286 14.4564 28.082 14.6113C28.6576 14.7441 29.1667 14.9655 29.6094 15.2754C30.0521 15.5853 30.4062 15.9727 30.6719 16.4375C30.9596 16.8802 31.1035 17.4115 31.1035 18.0312C31.1035 18.319 31.0814 18.5514 31.0371 18.7285C31.015 18.8835 30.9486 19.0273 30.8379 19.1602C30.7272 19.2708 30.5833 19.3815 30.4062 19.4922C30.2513 19.5807 30.0521 19.7025 29.8086 19.8574C29.6758 19.8796 29.4766 19.9349 29.2109 20.0234C28.9453 20.0898 28.6354 20.1673 28.2812 20.2559C27.9492 20.3444 27.5951 20.4329 27.2188 20.5215C26.8424 20.61 26.4772 20.6986 26.123 20.7871C25.791 20.8757 25.4922 20.9531 25.2266 21.0195C24.9609 21.0859 24.7617 21.1302 24.6289 21.1523C24.5625 21.1745 24.4186 21.1966 24.1973 21.2188C23.9759 21.2409 23.7324 21.2741 23.4668 21.3184C23.2233 21.3405 22.9909 21.3737 22.7695 21.418C22.5482 21.4401 22.4154 21.4622 22.3711 21.4844C22.3047 21.5065 22.2272 21.5618 22.1387 21.6504C22.0723 21.7168 22.0391 21.7611 22.0391 21.7832C22.0391 22.2259 22.1608 22.6022 22.4043 22.9121C22.6478 23.1999 22.9577 23.4434 23.334 23.6426C23.7103 23.8418 24.1309 23.9967 24.5957 24.1074C25.0827 24.196 25.5586 24.2734 26.0234 24.3398C26.4883 24.3841 26.9199 24.4062 27.3184 24.4062C27.7168 24.4062 28.0378 24.4062 28.2812 24.4062C29.388 24.4062 30.4727 24.3509 31.5352 24.2402C32.5977 24.1074 33.6823 24.041 34.7891 24.041V24.3066C34.7891 24.4395 34.7669 24.5833 34.7227 24.7383C34.7005 24.8711 34.6562 25.0039 34.5898 25.1367C34.5234 25.2474 34.4349 25.3138 34.3242 25.3359C33.4831 25.513 32.7305 25.6569 32.0664 25.7676C31.4245 25.8561 30.8158 25.9225 30.2402 25.9668C29.6647 25.9889 29.0671 26 28.4473 26C27.8275 26.0221 27.1413 26.0332 26.3887 26.0332H25.8242C25.5807 26.0332 25.3151 26.0221 25.0273 26C24.7396 26 24.4629 26 24.1973 26H23.6328C22.9466 25.8229 22.349 25.5462 21.8398 25.1699C21.3529 24.7715 20.9544 24.3066 20.6445 23.7754C20.3346 23.2441 20.1022 22.6686 19.9473 22.0488C19.8145 21.429 19.748 20.7982 19.748 20.1562ZM27.1855 16.2383C26.8978 16.2383 26.5658 16.2715 26.1895 16.3379C25.8353 16.3822 25.459 16.4707 25.0605 16.6035C24.6842 16.7142 24.3079 16.8691 23.9316 17.0684C23.5553 17.2454 23.2233 17.4668 22.9355 17.7324C22.6478 17.9759 22.4043 18.2526 22.2051 18.5625C22.028 18.8724 21.9395 19.2155 21.9395 19.5918H23.3008C23.7878 19.5918 24.2858 19.5697 24.7949 19.5254C25.304 19.4811 25.8021 19.4147 26.2891 19.3262C26.776 19.2155 27.1966 19.0605 27.5508 18.8613C27.9271 18.64 28.2259 18.3633 28.4473 18.0312C28.6908 17.6992 28.8125 17.2897 28.8125 16.8027V16.6367L28.4805 16.3047C28.4362 16.3047 28.3477 16.3047 28.2148 16.3047C28.1042 16.2826 27.9824 16.2715 27.8496 16.2715C27.7168 16.2493 27.584 16.2383 27.4512 16.2383C27.3405 16.2383 27.252 16.2383 27.1855 16.2383ZM39.9355 17.334C39.3158 17.334 38.7402 17.3893 38.209 17.5C37.6999 17.5885 37.1354 17.6328 36.5156 17.6328C36.2721 17.6328 36.1172 17.5443 36.0508 17.3672C35.9844 17.168 35.9512 16.9798 35.9512 16.8027V16.6367C35.9954 16.5482 36.0618 16.4375 36.1504 16.3047C36.2611 16.1719 36.3717 16.0501 36.4824 15.9395C36.5931 15.8066 36.6816 15.696 36.748 15.6074C36.8366 15.5189 36.8919 15.4746 36.9141 15.4746H39.9688V10.4941C39.9688 10.4056 40.002 10.3392 40.0684 10.2949C40.1348 10.2507 40.2122 10.2174 40.3008 10.1953C40.4115 10.151 40.5111 10.1289 40.5996 10.1289C40.6882 10.1068 40.7546 10.0957 40.7988 10.0957C41.153 10.0957 41.4076 10.2285 41.5625 10.4941C41.7396 10.7376 41.8503 11.0475 41.8945 11.4238C41.9609 11.8001 41.9831 12.2096 41.9609 12.6523C41.9609 13.0951 41.9609 13.5046 41.9609 13.8809C41.9609 14.2572 41.9831 14.5892 42.0273 14.877C42.0938 15.1426 42.2266 15.2865 42.4258 15.3086C42.6029 15.3307 42.9349 15.375 43.4219 15.4414C43.931 15.4857 44.4512 15.5521 44.9824 15.6406C45.5358 15.707 46.056 15.7734 46.543 15.8398C47.0299 15.9062 47.3841 15.9505 47.6055 15.9727C47.6497 15.9727 47.7272 15.9948 47.8379 16.0391C47.9707 16.0612 48.1035 16.0833 48.2363 16.1055C48.3913 16.1276 48.5241 16.1608 48.6348 16.2051C48.7454 16.2493 48.8229 16.2826 48.8672 16.3047C48.9115 16.3047 48.9779 16.349 49.0664 16.4375C49.1549 16.526 49.1992 16.5924 49.1992 16.6367C49.1992 16.7917 49.1549 16.9355 49.0664 17.0684C48.9779 17.2012 48.8672 17.3118 48.7344 17.4004C48.6016 17.4668 48.4577 17.5221 48.3027 17.5664C48.1699 17.5885 48.0371 17.5996 47.9043 17.5996C47.86 17.5996 47.7383 17.5885 47.5391 17.5664C47.3398 17.5221 47.1296 17.4779 46.9082 17.4336C46.709 17.3893 46.5098 17.3561 46.3105 17.334C46.1335 17.2897 46.0228 17.2676 45.9785 17.2676H45.6465C45.4473 17.2676 45.237 17.2676 45.0156 17.2676C44.7943 17.2676 44.5729 17.2676 44.3516 17.2676H43.4551C43.3001 17.2676 43.1452 17.2676 42.9902 17.2676C42.8353 17.2676 42.7025 17.2676 42.5918 17.2676H42.4258L42.0938 17.5996C42.0938 17.6217 42.0938 17.6992 42.0938 17.832C42.0938 17.9648 42.0827 18.1198 42.0605 18.2969C42.0384 18.474 42.0163 18.6621 41.9941 18.8613C41.9941 19.0384 41.9941 19.1823 41.9941 19.293C41.9941 20.4883 42.1159 21.429 42.3594 22.1152C42.6029 22.8014 42.9792 23.3216 43.4883 23.6758C44.0195 24.0078 44.6836 24.2181 45.4805 24.3066C46.2995 24.373 47.2956 24.4062 48.4688 24.4062C48.6016 24.4062 48.7786 24.4062 49 24.4062C49.2214 24.4062 49.4427 24.4062 49.6641 24.4062C49.8854 24.4062 50.0736 24.4062 50.2285 24.4062C50.3835 24.3841 50.472 24.373 50.4941 24.373C50.5163 24.373 50.5716 24.362 50.6602 24.3398C50.7487 24.2956 50.8483 24.2624 50.959 24.2402C51.0918 24.196 51.1914 24.1517 51.2578 24.1074C51.3464 24.0632 51.4128 24.041 51.457 24.041C51.5456 24.041 51.612 24.0853 51.6562 24.1738C51.7227 24.2402 51.7669 24.3288 51.7891 24.4395C51.8112 24.5501 51.8223 24.6497 51.8223 24.7383V24.9707C51.8223 25.3249 51.7448 25.5794 51.5898 25.7344C51.4349 25.8893 51.0697 25.9779 50.4941 26H49.9297C49.6641 26 49.3874 26 49.0996 26C48.834 26.0221 48.5573 26.0332 48.2695 26.0332H47.7715C46.5098 26.0332 45.4362 25.9889 44.5508 25.9004C43.6654 25.7897 42.9349 25.6237 42.3594 25.4023C41.7839 25.1589 41.3301 24.8379 40.998 24.4395C40.666 24.041 40.4225 23.5208 40.2676 22.8789C40.1348 22.237 40.0462 21.4622 40.002 20.5547C39.9577 19.6471 39.9355 18.5736 39.9355 17.334ZM52.4199 12.2871C52.4199 12.1543 52.4199 11.9329 52.4199 11.623C52.3978 11.3132 52.3978 10.9701 52.4199 10.5938C52.4421 10.2174 52.4642 9.83008 52.4863 9.43164C52.5306 9.01107 52.6081 8.64583 52.7188 8.33594C52.8294 8.00391 52.9622 7.72721 53.1172 7.50586C53.2721 7.28451 53.4824 7.17383 53.748 7.17383C54.0801 7.17383 54.3346 7.28451 54.5117 7.50586C54.6888 7.72721 54.7773 7.98177 54.7773 8.26953C54.7773 8.88932 54.7441 9.48698 54.6777 10.0625C54.6335 10.638 54.5781 11.2135 54.5117 11.7891C54.4453 12.3424 54.401 12.918 54.3789 13.5156C54.3568 14.0911 54.3678 14.6888 54.4121 15.3086C54.3678 15.3529 54.2572 15.4193 54.0801 15.5078C53.9251 15.5964 53.8145 15.6406 53.748 15.6406C53.4824 15.6406 53.2611 15.5078 53.084 15.2422C52.929 14.9544 52.7962 14.6224 52.6855 14.2461C52.597 13.8477 52.5306 13.4714 52.4863 13.1172C52.4421 12.7409 52.4199 12.4642 52.4199 12.2871ZM58.4961 23.9746V23.2773C58.4961 22.9896 58.5182 22.7129 58.5625 22.4473C58.6068 22.1816 58.6953 21.9492 58.8281 21.75C58.9609 21.5508 59.1491 21.4512 59.3926 21.4512V21.4844H59.4922L60.1562 24.041C60.1562 24.1296 60.2005 24.196 60.2891 24.2402C60.3776 24.2845 60.4661 24.3288 60.5547 24.373C60.6654 24.3952 60.765 24.4062 60.8535 24.4062C60.9642 24.4062 61.0527 24.4062 61.1191 24.4062C61.1634 24.4062 61.2188 24.4062 61.2852 24.4062C61.3737 24.3841 61.429 24.373 61.4512 24.373C61.584 24.3509 61.8385 24.2956 62.2148 24.207C62.5911 24.0964 62.9785 23.9967 63.377 23.9082C63.7975 23.8197 64.1849 23.7311 64.5391 23.6426C64.9154 23.5319 65.181 23.4655 65.3359 23.4434C65.4466 23.2663 65.6126 23.1113 65.834 22.9785C66.0553 22.8236 66.2767 22.6797 66.498 22.5469C66.7194 22.4141 66.9076 22.2702 67.0625 22.1152C67.2174 21.9603 67.2949 21.7611 67.2949 21.5176C67.2949 20.9642 67.151 20.5215 66.8633 20.1895C66.5977 19.8574 66.2435 19.6139 65.8008 19.459C65.3802 19.2819 64.9264 19.1602 64.4395 19.0938C63.9525 19.0273 63.4876 18.9609 63.0449 18.8945C62.8678 18.8724 62.5801 18.8392 62.1816 18.7949C61.8053 18.7285 61.3737 18.6621 60.8867 18.5957C60.3997 18.5293 59.8906 18.4629 59.3594 18.3965C58.8281 18.3079 58.3079 18.2415 57.7988 18.1973C57.3118 18.1309 56.8691 18.0755 56.4707 18.0312C56.0944 17.987 55.8177 17.9538 55.6406 17.9316C55.5078 17.8431 55.3639 17.6882 55.209 17.4668C55.054 17.2454 54.9766 17.0684 54.9766 16.9355C54.9766 16.5592 55.1758 16.2161 55.5742 15.9062C55.9948 15.5742 56.515 15.2754 57.1348 15.0098C57.7546 14.7441 58.4518 14.5117 59.2266 14.3125C60.0234 14.1133 60.7982 13.9362 61.5508 13.7812C62.3255 13.6263 63.0339 13.5156 63.6758 13.4492C64.3398 13.3828 64.849 13.3496 65.2031 13.3496C65.4688 13.3496 65.7122 13.4382 65.9336 13.6152C66.1771 13.7923 66.2988 14.0469 66.2988 14.3789C66.2988 14.6445 66.2214 14.8438 66.0664 14.9766C65.9336 15.0872 65.7565 15.1647 65.5352 15.209C65.3359 15.2311 65.1257 15.2533 64.9043 15.2754C64.7051 15.2754 64.5169 15.2865 64.3398 15.3086C63.9857 15.375 63.5319 15.4635 62.9785 15.5742C62.4473 15.6849 61.916 15.7956 61.3848 15.9062C60.8535 16.0169 60.4108 16.1055 60.0566 16.1719L59.4922 16.3047V16.6699C59.9128 16.6699 60.444 16.681 61.0859 16.7031C61.7279 16.7253 62.4141 16.7806 63.1445 16.8691C63.875 16.9577 64.5944 17.1016 65.3027 17.3008C66.0332 17.4779 66.6862 17.7324 67.2617 18.0645C67.8372 18.3743 68.3021 18.7728 68.6562 19.2598C69.0326 19.7246 69.2207 20.3001 69.2207 20.9863C69.2207 21.916 68.9661 22.7018 68.457 23.3438C67.9479 23.9857 67.306 24.5059 66.5312 24.9043C65.7565 25.3027 64.9154 25.5905 64.0078 25.7676C63.1003 25.9447 62.2591 26.0332 61.4844 26.0332C61.1745 26.0332 60.8424 26.0111 60.4883 25.9668C60.1341 25.9004 59.8021 25.7897 59.4922 25.6348C59.2044 25.4798 58.9609 25.2695 58.7617 25.0039C58.5846 24.7383 58.4961 24.3952 58.4961 23.9746ZM81.5391 34.0352C81.8047 34.0352 82.0482 34.1569 82.2695 34.4004C82.513 34.666 82.7454 34.9648 82.9668 35.2969C83.1882 35.6289 83.3984 35.9609 83.5977 36.293C83.7969 36.6471 84.0072 36.8906 84.2285 37.0234C84.6934 37.3997 85.2135 37.7096 85.7891 37.9531C86.3867 38.1966 86.9954 38.3848 87.6152 38.5176C88.235 38.6725 88.8548 38.7832 89.4746 38.8496C90.1165 38.9382 90.7363 38.9824 91.334 38.9824C91.3783 38.9824 91.4557 38.9714 91.5664 38.9492C91.6992 38.9492 91.832 38.9492 91.9648 38.9492C92.0977 38.9492 92.2194 38.9382 92.3301 38.916C92.4629 38.916 92.5514 38.916 92.5957 38.916C92.9277 38.7611 93.1823 38.5508 93.3594 38.2852C93.5586 38.0417 93.6914 37.765 93.7578 37.4551C93.8464 37.1673 93.9017 36.8574 93.9238 36.5254C93.946 36.1934 93.957 35.8613 93.957 35.5293C93.957 35.2858 93.9349 34.8652 93.8906 34.2676C93.8685 33.6921 93.8242 33.0059 93.7578 32.209C93.6914 31.4342 93.6029 30.6152 93.4922 29.752C93.4036 28.8887 93.2708 28.0697 93.0938 27.2949C92.9388 26.5202 92.7396 25.8451 92.4961 25.2695C92.2526 24.694 91.9759 24.2956 91.666 24.0742C91.4447 24.3177 91.2233 24.5612 91.002 24.8047C90.7806 25.026 90.526 25.2253 90.2383 25.4023C89.9727 25.5794 89.696 25.7233 89.4082 25.834C89.1204 25.9447 88.7995 26 88.4453 26C87.737 26 86.9844 25.9225 86.1875 25.7676C85.3906 25.6126 84.6491 25.347 83.9629 24.9707C83.2767 24.5944 82.7122 24.1185 82.2695 23.543C81.8268 22.9453 81.6055 22.2038 81.6055 21.3184C81.6055 20.4993 81.8268 19.8132 82.2695 19.2598C82.7122 18.6842 83.2546 18.2305 83.8965 17.8984C84.5605 17.5443 85.2799 17.2897 86.0547 17.1348C86.8294 16.9798 87.5599 16.9023 88.2461 16.9023C88.4674 16.9023 88.7331 16.9134 89.043 16.9355C89.375 16.9355 89.707 16.9577 90.0391 17.002C90.3711 17.0462 90.681 17.1126 90.9688 17.2012C91.2565 17.2897 91.4889 17.4225 91.666 17.5996C91.6882 17.6439 91.7103 17.7656 91.7324 17.9648C91.7767 18.1419 91.8099 18.3411 91.832 18.5625C91.8763 18.7839 91.9095 18.9941 91.9316 19.1934C91.9538 19.3926 91.9648 19.5033 91.9648 19.5254C92.0534 19.9238 92.1751 20.3112 92.3301 20.6875C92.5072 21.0417 92.6953 21.418 92.8945 21.8164C93.0938 22.1927 93.2819 22.569 93.459 22.9453C93.6361 23.3216 93.7799 23.6979 93.8906 24.0742C94.4883 25.9779 94.9753 27.8704 95.3516 29.752C95.7279 31.6335 95.916 33.5703 95.916 35.5625C95.916 35.651 95.9049 35.806 95.8828 36.0273C95.8828 36.2708 95.8828 36.5143 95.8828 36.7578C95.8828 37.0234 95.8717 37.2669 95.8496 37.4883C95.8496 37.7318 95.8496 37.8978 95.8496 37.9863C95.8275 38.5618 95.6504 39.0378 95.3184 39.4141C94.9863 39.8125 94.5768 40.1113 94.0898 40.3105C93.625 40.5319 93.1159 40.6868 92.5625 40.7754C92.0312 40.8861 91.5553 40.9414 91.1348 40.9414C90.4264 40.9414 89.6849 40.875 88.9102 40.7422C88.1576 40.6315 87.4271 40.4544 86.7188 40.2109C86.0104 39.9674 85.3353 39.6576 84.6934 39.2812C84.0736 38.9271 83.5312 38.4954 83.0664 37.9863C82.6016 37.4772 82.2253 36.9017 81.9375 36.2598C81.6719 35.6178 81.5391 34.8763 81.5391 34.0352ZM83.5312 21.5176C83.5312 21.9603 83.6641 22.3477 83.9297 22.6797C84.1953 23.0117 84.5273 23.2884 84.9258 23.5098C85.3242 23.709 85.7448 23.8639 86.1875 23.9746C86.6302 24.0632 87.0176 24.1074 87.3496 24.1074C88.6113 24.1074 89.4857 23.7975 89.9727 23.1777C90.4596 22.5358 90.7031 21.6061 90.7031 20.3887C90.7031 20.0345 90.6367 19.7578 90.5039 19.5586C90.3711 19.3372 90.194 19.1823 89.9727 19.0938C89.7513 19.0052 89.4967 18.9499 89.209 18.9277C88.9212 18.8835 88.6335 18.8613 88.3457 18.8613C87.9473 18.8613 87.4714 18.9056 86.918 18.9941C86.3646 19.0605 85.8333 19.1934 85.3242 19.3926C84.8372 19.5918 84.4167 19.8685 84.0625 20.2227C83.7083 20.5547 83.5312 20.9863 83.5312 21.5176ZM95.8496 22.082C95.8496 21.3294 95.9824 20.5547 96.248 19.7578C96.5137 18.9609 96.89 18.2305 97.377 17.5664C97.8861 16.9023 98.4837 16.36 99.1699 15.9395C99.8561 15.5189 100.642 15.3086 101.527 15.3086C102.767 15.3086 103.807 15.4303 104.648 15.6738C105.49 15.9173 106.176 16.2936 106.707 16.8027C107.238 17.2897 107.615 17.9316 107.836 18.7285C108.079 19.5033 108.201 20.4219 108.201 21.4844C108.201 21.5508 108.19 21.6836 108.168 21.8828C108.168 22.0599 108.168 22.248 108.168 22.4473C108.168 22.6465 108.157 22.8457 108.135 23.0449C108.135 23.222 108.135 23.3548 108.135 23.4434C107.98 23.9967 107.681 24.4505 107.238 24.8047C106.818 25.1367 106.32 25.3913 105.744 25.5684C105.191 25.7454 104.604 25.8672 103.984 25.9336C103.387 26 102.844 26.0332 102.357 26.0332C101.671 26.0332 100.952 25.9889 100.199 25.9004C99.4466 25.8118 98.7383 25.6348 98.0742 25.3691C97.4323 25.0814 96.901 24.6829 96.4805 24.1738C96.0599 23.6426 95.8496 22.9453 95.8496 22.082ZM97.5098 21.6504C97.5098 22.2259 97.6758 22.7018 98.0078 23.0781C98.362 23.4323 98.7826 23.709 99.2695 23.9082C99.7565 24.1074 100.277 24.2402 100.83 24.3066C101.406 24.373 101.893 24.4062 102.291 24.4062C102.689 24.4062 103.033 24.4062 103.32 24.4062C103.63 24.4062 103.929 24.373 104.217 24.3066C104.505 24.2402 104.803 24.1406 105.113 24.0078C105.423 23.875 105.788 23.6868 106.209 23.4434C106.43 23.0892 106.552 22.7461 106.574 22.4141C106.596 22.0599 106.607 21.6947 106.607 21.3184C106.607 20.5658 106.464 19.9017 106.176 19.3262C105.888 18.7507 105.501 18.2858 105.014 17.9316C104.527 17.5775 103.94 17.3451 103.254 17.2344C102.59 17.1016 101.848 17.1126 101.029 17.2676C100.697 17.334 100.321 17.5332 99.9004 17.8652C99.4798 18.1973 99.0924 18.5846 98.7383 19.0273C98.3841 19.4701 98.0853 19.9349 97.8418 20.4219C97.6204 20.8867 97.5098 21.2962 97.5098 21.6504ZM110.758 16.6367C110.824 15.5742 110.857 14.6335 110.857 13.8145C110.857 12.9954 110.824 12.2539 110.758 11.5898C110.714 10.9036 110.647 10.2507 110.559 9.63086C110.47 9.01107 110.382 8.36914 110.293 7.70508C110.227 7.01888 110.16 6.26628 110.094 5.44727C110.049 4.62826 110.027 3.6875 110.027 2.625V2.39258C110.027 2.25977 110.027 2.12695 110.027 1.99414C110.049 1.86133 110.061 1.72852 110.061 1.5957V1.33008C110.083 1.28581 110.138 1.2194 110.227 1.13086C110.315 1.02018 110.415 0.920573 110.525 0.832031C110.636 0.721354 110.736 0.621745 110.824 0.533203C110.913 0.444661 110.979 0.389323 111.023 0.367188C111.046 0.367188 111.134 0.411458 111.289 0.5L111.688 0.699219L112.02 0.998047C112.042 1.37435 112.075 1.82812 112.119 2.35938C112.163 2.89062 112.197 3.46615 112.219 4.08594C112.263 4.68359 112.307 5.30339 112.352 5.94531C112.396 6.5651 112.44 7.17383 112.484 7.77148C112.529 8.36914 112.562 8.93359 112.584 9.46484C112.606 9.99609 112.639 10.4499 112.684 10.8262C112.706 10.8926 112.717 11.0807 112.717 11.3906C112.717 11.7005 112.706 12.0436 112.684 12.4199C112.684 12.7741 112.684 13.1172 112.684 13.4492V14.0469C112.706 14.1576 112.728 14.3346 112.75 14.5781C112.772 14.7995 112.794 15.054 112.816 15.3418C112.861 15.6074 112.894 15.873 112.916 16.1387L112.982 16.6367C112.85 16.9245 112.695 17.1126 112.518 17.2012C112.363 17.2676 112.141 17.3008 111.854 17.3008C111.61 17.3008 111.389 17.2676 111.189 17.2012C111.012 17.1126 110.868 16.9245 110.758 16.6367ZM110.359 24.041C110.359 23.7754 110.426 23.543 110.559 23.3438C110.691 23.1224 110.857 22.9453 111.057 22.8125C111.256 22.6576 111.488 22.5469 111.754 22.4805C112.02 22.4141 112.285 22.3809 112.551 22.3809C112.816 22.3809 113.049 22.4473 113.248 22.5801C113.469 22.6908 113.658 22.8457 113.812 23.0449C113.99 23.222 114.111 23.4323 114.178 23.6758C114.266 23.9193 114.311 24.1628 114.311 24.4062C114.311 24.6497 114.244 24.8711 114.111 25.0703C113.979 25.2474 113.79 25.4134 113.547 25.5684C113.326 25.7012 113.093 25.8118 112.85 25.9004C112.606 25.9668 112.396 26 112.219 26C111.599 26 111.134 25.8118 110.824 25.4355C110.514 25.0592 110.359 24.5944 110.359 24.041Z" fill="#212121"/>
</svg>
