<svg width="870" height="15" viewBox="0 0 870 15" fill="none" xmlns="http://www.w3.org/2000/svg">
<path fill-rule="evenodd" clip-rule="evenodd" d="M294.002 9.69029C221.638 3.65026 180.746 3.23697 108.103 4.70551C87.4093 5.12384 60.9216 6.37013 39.5927 7.51298C28.9313 8.08424 19.5647 8.62933 12.8635 9.0316C9.51305 9.23273 6.82906 9.39814 4.98297 9.51326C4.05993 9.57081 3.34637 9.6158 2.86371 9.64638L2.13058 9.69306C2.13012 9.69309 2.1299 9.69311 2.00122 7.70071C1.87254 5.70831 1.87281 5.7083 1.87333 5.70826L2.61003 5.66135C3.09397 5.63068 3.80887 5.58562 4.73331 5.52797C6.58219 5.41268 9.26928 5.24708 12.6232 5.04575C19.3308 4.64309 28.7062 4.09749 39.378 3.52567C60.7153 2.38238 87.2581 1.13301 108.022 0.713267C180.759 -0.757167 221.795 -0.343594 294.336 5.71113C302.23 6.37001 308.597 7.09573 314.743 7.7963C315.631 7.89755 316.515 7.99827 317.398 8.0982C324.39 8.88943 331.359 9.63265 340.322 10.2004C384.066 12.9711 449.987 7.811 463.603 6.67347C465.325 6.52955 466.962 6.42495 468.699 6.36031C482.298 5.85409 548.298 3.44543 592.307 2.70967C598.149 2.612 603.755 2.51547 609.17 2.42224C662.591 1.50247 697.321 0.904522 754.996 2.71037C765.578 3.04167 774.308 3.6791 782.62 4.28597C784.712 4.43873 786.778 4.58955 788.84 4.73306C799.097 5.44695 809.317 5.98495 822.43 5.70464C831.279 5.51547 842.615 4.77041 851.763 4.06984C856.331 3.71995 860.345 3.38191 863.216 3.13137C864.651 3.0061 865.801 2.90274 866.591 2.83073C866.986 2.79472 867.291 2.76656 867.498 2.74742L867.809 2.71835C867.809 2.71834 867.81 2.71825 867.994 4.66029L867.81 2.71825C868.911 2.61446 869.887 3.42024 869.991 4.518C870.095 5.61575 869.287 6.5898 868.187 6.69358L867.999 4.70592C868.187 6.69358 868.187 6.69356 868.187 6.69358L868.186 6.69372L868.182 6.69409L867.868 6.72331C867.66 6.74265 867.352 6.77102 866.955 6.80723C866.16 6.87966 865.006 6.98349 863.565 7.10924C860.683 7.36072 856.655 7.69998 852.069 8.05118C842.907 8.7528 831.48 9.50514 822.515 9.69678C809.232 9.98074 798.878 9.43446 788.561 8.71644C786.477 8.57141 784.397 8.41956 782.296 8.26619C773.993 7.66002 765.361 7.02991 754.871 6.70146C697.295 4.89875 662.654 5.49513 609.233 6.41482C603.821 6.508 598.215 6.6045 592.374 6.70217C548.412 7.43713 482.453 9.84416 468.848 10.3506C467.182 10.4126 465.607 10.513 463.937 10.6526C450.364 11.7866 384.153 16.9777 340.069 14.1854C331.008 13.6115 323.963 12.8597 316.947 12.0658C316.06 11.9655 315.174 11.8645 314.285 11.7631C308.139 11.0626 301.832 10.3438 294.002 9.69029ZM0.00420955 7.82909C-0.0668586 6.72872 0.770414 5.77917 1.87333 5.70826L2.00122 7.70071L2.13058 9.69306C1.02766 9.76397 0.0752776 8.92946 0.00420955 7.82909Z" fill="#212121"/>
</svg>
