<svg width="870" height="13" viewBox="0 0 870 13" fill="none" xmlns="http://www.w3.org/2000/svg">
<path fill-rule="evenodd" clip-rule="evenodd" d="M664.704 7.60844C643.466 9.36038 621.42 11.179 593.875 11.6337C549.78 12.3616 480.013 11.7868 465.82 11.6578C464.108 11.6423 462.486 11.6681 460.771 11.7323C447.33 12.2359 383.913 14.3718 340.069 11.6297C331.008 11.0631 323.962 10.3208 316.947 9.53692C316.06 9.43784 315.174 9.33814 314.285 9.23806C308.138 8.54638 301.832 7.83666 294.002 7.1914C257.903 4.2164 229.902 4.95878 201.826 6.62927C194.113 7.08819 186.384 7.61801 178.476 8.16018C157.613 9.59047 135.496 11.1067 109.103 11.6335C88.2934 12.0488 61.4638 10.936 39.8717 9.72318C29.0682 9.11634 19.5621 8.48364 12.7565 8.00264C9.35358 7.76212 6.62544 7.5595 4.74744 7.41697C3.80843 7.3457 3.08193 7.28945 2.58987 7.25099C2.34383 7.23176 2.1564 7.21698 2.03031 7.20699L1.83969 7.19182C1.83913 7.19178 1.83882 7.19175 2.00015 5.24025L1.83969 7.19182C0.738133 7.10345 -0.0830059 6.15207 0.00670395 5.06694C0.0964137 3.9818 1.06213 3.17377 2.16368 3.26214L2.00125 5.22695C2.16368 3.26214 2.16325 3.26211 2.16368 3.26214L2.35111 3.27705C2.47581 3.28693 2.66183 3.3016 2.90642 3.32072C3.39559 3.35895 4.11906 3.41497 5.05489 3.486C6.92659 3.62805 9.64769 3.83015 13.0429 4.07012C19.8338 4.55009 29.3198 5.18145 40.0996 5.78695C61.674 6.9988 88.3751 8.10378 109.022 7.69166C135.31 7.16696 157.28 5.66077 178.114 4.23245C186.043 3.68882 193.809 3.15648 201.585 2.69382C229.776 1.01647 257.982 0.26651 294.336 3.2625C302.23 3.91306 308.597 4.62961 314.743 5.32133C315.631 5.4213 316.515 5.52075 317.398 5.61941C324.39 6.40065 331.359 7.13449 340.322 7.69505C383.934 10.4226 447.155 8.29698 460.619 7.79258C462.392 7.72612 464.077 7.6992 465.857 7.71537C480.059 7.84443 549.774 8.41849 593.808 7.69162C621.211 7.23926 643.122 5.43203 664.359 3.6804C667.66 3.40808 670.946 3.13711 674.233 2.87278C698.666 0.908 723.153 -0.684775 754.996 0.299643C766.973 0.669903 776.688 1.98656 786.074 3.2585C787.126 3.40107 788.173 3.54308 789.22 3.68313C799.603 5.07274 809.891 6.27765 822.93 6.00244C831.698 5.81737 842.846 4.4089 851.859 3.0326C856.353 2.34631 860.294 1.6716 863.111 1.16856C864.519 0.917086 865.646 0.708635 866.419 0.563252C866.806 0.490563 867.104 0.43365 867.306 0.395017L867.533 0.351097L867.608 0.336644C868.692 0.12443 869.746 0.817893 869.961 1.88574C870.177 2.95358 869.473 3.99127 868.389 4.20348L867.999 2.27022C868.389 4.20348 868.389 4.20342 868.389 4.20348L868.387 4.20381L868.306 4.21946L868.071 4.26479C867.865 4.30438 867.562 4.36229 867.169 4.436C866.385 4.58342 865.247 4.79411 863.825 5.04795C860.983 5.55553 857.008 6.23615 852.472 6.92869C843.426 8.31005 832.061 9.75323 823.016 9.94416C809.658 10.2261 799.122 8.98723 788.681 7.58986C787.631 7.44937 786.583 7.30737 785.533 7.16515C776.141 5.89271 766.626 4.60374 754.871 4.24032C723.248 3.26272 698.933 4.84227 674.558 6.80233C671.281 7.06585 668.002 7.33635 664.704 7.60844Z" fill="#212121"/>
</svg>
