<svg width="870" height="18" viewBox="0 0 870 18" fill="none" xmlns="http://www.w3.org/2000/svg">
<path fill-rule="evenodd" clip-rule="evenodd" d="M655.866 8.5835C639.298 10.9745 621.706 13.5132 592.374 14.0061C548.585 14.7419 482.971 17.1451 469.011 17.667C467.165 17.736 465.364 17.7548 463.511 17.7155C453.863 17.5108 419.64 16.6475 378.091 14.0023C369.592 13.4613 337.873 14.6367 304.93 15.8575C303.45 15.9123 301.969 15.9673 300.486 16.0221C283.291 16.6584 266.084 17.2839 252.05 17.6558C238.074 18.0262 227.096 18.1507 222.461 17.7618C158.505 12.3964 157.043 12.4288 107.406 13.5279C100.883 13.6723 93.5275 13.8352 85.0894 14.0066C64.3802 14.4274 43.6335 15.1792 28.0615 15.8259C20.2762 16.1492 13.7859 16.4462 9.24236 16.6624C6.97062 16.7704 5.18564 16.8583 3.96891 16.9191C3.36055 16.9495 2.89425 16.9732 2.58021 16.9892L2.10545 17.0136C2.10516 17.0137 2.10503 17.0137 2.0012 15.0097C1.89736 13.0057 1.89755 13.0057 1.8979 13.0057L2.3766 12.9811C2.69204 12.9649 3.15978 12.9412 3.76963 12.9107C4.98934 12.8498 6.77753 12.7617 9.05269 12.6535C13.603 12.437 20.1014 12.1396 27.8959 11.8159C43.4836 11.1686 64.2607 10.4157 85.0084 9.99409C93.4169 9.82324 100.753 9.66092 107.265 9.51685C157.079 8.41469 158.638 8.3802 222.795 13.7624C227.158 14.1285 237.875 14.0167 251.944 13.6439C265.954 13.2726 283.14 12.6479 300.339 12.0115C301.973 11.951 303.607 11.8904 305.239 11.8299C337.872 10.6201 369.635 9.44258 378.344 9.997C419.817 12.6373 453.979 13.499 463.595 13.703C465.364 13.7405 467.087 13.7227 468.862 13.6564C482.816 13.1347 548.471 10.7298 592.307 9.99325C621.383 9.50466 638.77 6.99577 655.301 4.61026C656.74 4.40263 658.173 4.19593 659.606 3.99158C677.581 1.42845 695.599 -0.754048 727.481 0.249259C739.856 0.63871 755.624 3.55002 771.439 6.47017C772.728 6.70805 774.016 6.94598 775.304 7.18262C792.522 10.3481 809.475 13.2818 822.43 13.0035C831.279 12.8133 842.615 12.0645 851.763 11.3603C856.331 11.0087 860.345 10.6689 863.216 10.4171C864.651 10.2912 865.801 10.1873 866.591 10.1149C866.986 10.0787 867.292 10.0504 867.498 10.0312L867.809 10.002C867.809 10.002 867.81 10.0019 867.999 11.9997C868.187 13.9974 868.187 13.9974 868.187 13.9975L868.186 13.9976L868.182 13.9979L867.868 14.0273C867.725 14.0407 867.534 14.0584 867.299 14.0801L866.955 14.1117C866.16 14.1845 865.006 14.2888 863.565 14.4152C860.683 14.668 856.655 15.0089 852.069 15.3619C842.907 16.0671 831.48 16.8233 822.515 17.0159C809.074 17.3047 791.695 14.2763 774.582 11.1302C773.323 10.8988 772.066 10.6668 770.812 10.4353C754.882 7.49527 739.411 4.64006 727.355 4.26066C695.771 3.26674 677.995 5.42317 660.169 7.96499C658.738 8.16909 657.306 8.37574 655.866 8.5835ZM869.991 11.8108C870.095 12.9141 869.287 13.8932 868.187 13.9975L867.999 11.9997L867.81 10.0019C868.911 9.89756 869.887 10.7074 869.991 11.8108ZM0.00274305 15.1138C-0.0546044 14.007 0.794182 13.0632 1.8979 13.0057L2.0012 15.0097L2.10545 17.0136C1.00173 17.0712 0.0600904 16.2206 0.00274305 15.1138Z" fill="#212121"/>
</svg>
