<svg width="103" height="74" viewBox="0 0 103 74" fill="none" xmlns="http://www.w3.org/2000/svg">
<path d="M14.5341 67.3362C11.2666 57.8005 17.6741 47.9813 24.7035 41.8999C29.0117 38.1734 34.0289 35.2953 39.4191 33.4389C42.0827 32.52 44.9233 31.7538 47.7384 31.5163C50.3364 31.2966 53.0986 31.6512 55.171 33.3239C59.2996 36.6564 57.5827 43.1276 54.3053 46.476C52.6732 48.1421 50.3951 49.3115 48.0411 49.415C45.6872 49.5184 43.5249 48.4241 42.1648 46.4829C39.4249 42.5686 40.0299 37.197 41.713 32.9673C43.628 28.1451 47.1024 24.139 51.2222 21.0104C56.0611 17.3363 61.7136 14.8078 67.3504 12.616C73.2875 10.3077 79.3849 8.46396 85.4987 6.67866C87.0129 6.23756 88.5248 5.80259 90.0409 5.36569C90.4705 5.24104 90.9415 4.915 91.1105 4.48812C91.2451 4.14287 91.0801 3.84787 90.6759 3.96094C84.0449 5.82459 77.4126 7.71924 70.9273 10.049C64.7333 12.2765 58.519 14.8529 53.0169 18.5096C48.1519 21.7444 43.8636 25.9081 41.169 31.1208C38.8651 35.5724 37.5729 41.2113 39.6382 45.9601C40.5721 48.1006 42.2024 49.9493 44.528 50.6041C47.197 51.3612 50.1035 50.5598 52.4343 49.1688C56.8444 46.5316 60.2705 40.8793 59.0476 35.6759C58.4164 32.997 56.1313 31.127 53.5385 30.3911C50.7686 29.6039 47.8094 30.0084 45.0359 30.6072C38.9974 31.917 33.2025 34.4699 28.1341 38C23.3891 41.3069 19.0662 45.4509 16.0452 50.3964C13.4385 54.6665 11.668 59.6713 12.1881 64.703C12.3139 65.9235 12.5864 67.1178 12.9853 68.2748C13.2181 68.9547 14.7322 67.895 14.5368 67.3198L14.5341 67.3362Z" fill="black"/>
<path d="M14.8599 70.4231L11.3722 66.5756L9.69418 64.7233L8.78935 63.7257C8.6021 63.5169 8.20332 63.2371 8.18377 62.9468C8.15548 62.6149 7.65737 62.7352 7.48585 62.8083C7.11121 62.9637 6.79928 63.268 6.61231 63.6219C6.42534 63.9758 6.51274 64.2352 6.75944 64.5183C7.0779 64.8804 7.40717 65.2324 7.72796 65.5883L9.53763 67.5835L13.2824 71.7145C13.7629 72.2411 15.3242 70.9368 14.8599 70.4231Z" fill="black"/>
<path d="M15.6748 69.6573C16.4879 66.8784 17.4424 64.1517 18.3459 61.4027C18.4644 61.0445 18.3207 60.7854 17.9051 60.8733C17.4895 60.9611 16.991 61.3504 16.8312 61.7528C15.7231 64.5696 14.8338 67.4846 13.9827 70.3822C13.8478 70.8392 14.4596 70.7887 14.7075 70.6809C15.15 70.4946 15.5357 70.1162 15.6687 69.655L15.6748 69.6573Z" fill="black"/>
</svg>
