<svg width="22" height="18" viewBox="0 0 22 18" fill="none" xmlns="http://www.w3.org/2000/svg">
<g clip-path="url(#clip0_1_1229)">
<path d="M20.7094 2.18698L16.1234 2.26305L13.9234 2.30109C13.5516 2.30109 13.1901 2.3106 12.8183 2.3201C12.6014 2.3201 12.3845 2.3201 12.1779 2.3201C11.4033 2.3201 12.6427 2.34863 12.7253 2.00632C12.5497 2.70996 11.207 2.58635 10.6906 2.49126C9.86428 2.33912 9.01734 2.00632 8.65583 1.26464C8.37696 0.703623 9.12062 0.323274 9.59574 0.218679C10.0709 0.114083 10.5253 0.123591 11.0004 0.114083C11.8887 0.0950652 12.777 0.0855565 13.6652 0.0760478L19.0878 -2.19288e-05C20.0173 -0.00953064 21.3084 0.28524 21.8455 1.05545C22.3826 1.82565 21.3807 2.17747 20.7094 2.18698Z" fill="#212121"/>
<path d="M18.5819 10.3359L10.6288 10.4405C9.32743 10.4596 8.02602 10.4786 6.72461 10.4881C5.76405 10.4976 4.51428 10.3169 3.69832 10.7258C2.94433 11.1062 1.7462 10.8209 1.04386 10.4786C0.630711 10.2789 -0.43314 9.60378 0.186579 9.0808C1.1678 8.25354 2.54151 8.27256 3.8016 8.25354C5.25794 8.23452 6.71428 8.2155 8.17062 8.19649L16.919 8.09189C17.8692 8.08238 19.2016 8.38666 19.749 9.17588C20.2964 9.96511 19.2739 10.3264 18.5819 10.3359Z" fill="#212121"/>
<path d="M18.8193 17.7623C15.793 17.7623 12.777 17.8669 9.75076 18C8.89348 18.038 7.65404 17.7147 7.14794 17.0111C6.62118 16.2694 7.6024 15.9937 8.21179 15.9461C11.2071 15.7084 14.2231 15.6323 17.2287 15.6418C18.1376 15.6418 19.377 15.9081 19.9038 16.6593C20.4306 17.4105 19.4597 17.7623 18.809 17.7528L18.8193 17.7623Z" fill="#212121"/>
</g>
<defs>
<clipPath id="clip0_1_1229">
<rect width="22" height="18" fill="white" transform="matrix(-1 0 0 1 22 0)"/>
</clipPath>
</defs>
</svg>
