<svg width="39" height="38" viewBox="0 0 39 38" fill="none" xmlns="http://www.w3.org/2000/svg">
<path fill-rule="evenodd" clip-rule="evenodd" d="M0.64908 0.973448C0.493256 1.57721 0.363402 2.1941 0.311461 2.81098C0.142651 4.98977 -0.0521279 12.3005 0.0127987 13.7706C0.0127987 14.2168 0.0907105 14.7156 0.272505 15.1225C0.597138 15.8444 1.4282 15.8969 1.88269 15.2275C2.0515 14.9912 2.15538 14.6762 2.20732 14.3743C2.35016 13.4949 2.46703 12.6155 2.53195 11.7362C2.71375 9.08485 2.88256 6.42043 2.99942 3.76913C3.03838 2.88974 2.94748 1.99722 2.8436 1.11783C2.76569 0.461564 2.23329 -0.0371959 1.73985 0.00217987C1.15551 0.0546809 0.791918 0.435313 0.64908 0.973448ZM18.5471 17.8851L18.5472 17.885C18.6349 17.5003 18.7137 17.1549 18.8286 16.8155C20.5167 11.7754 23.2306 7.28652 26.3211 3.02082C26.6847 2.52206 27.1392 2.04955 27.6456 1.73454C27.9183 1.56391 28.4637 1.59017 28.7753 1.76079C29.0091 1.89205 29.1779 2.40393 29.1259 2.69268C29.035 3.24395 28.8403 3.80833 28.5676 4.30709C26.7756 7.60153 24.9706 10.8828 23.1397 14.151C22.6011 15.1063 22.0387 16.0535 21.4773 16.9989L21.4772 16.999L21.477 16.9994C21.3211 17.2619 21.1653 17.5243 21.0101 17.7867C20.7764 18.1936 20.5166 18.5874 20.244 18.9549C19.9453 19.3749 19.4908 19.6243 19.0363 19.3486C19.0076 19.331 18.9787 19.3138 18.9498 19.2967C18.6783 19.1355 18.413 18.9781 18.413 18.4561C18.4628 18.2548 18.506 18.0656 18.5471 17.8851ZM36.1458 37.8997L36.1453 37.8996L36.1452 37.8996C35.6937 37.8335 35.2154 37.7636 34.7486 37.6587C31.9827 37.0287 29.2168 36.3987 26.4639 35.7425C25.8666 35.5981 25.2823 35.3487 24.7499 35.0599C24.0357 34.6793 23.789 34.1412 23.9058 33.5505C24.0227 32.9599 24.4902 32.5924 25.3082 32.5793C25.8666 32.5662 26.4639 32.5793 26.9963 32.7105C30.4894 33.603 33.9824 34.5218 37.4625 35.4537C37.8521 35.5587 38.2546 35.7425 38.5533 36.005C39.3064 36.6481 39.0727 37.6587 38.1118 37.9081C37.8738 37.9662 37.615 37.9718 37.3289 37.9781C37.1624 37.9817 36.9866 37.9855 36.8003 38C36.5921 37.9649 36.3723 37.9328 36.1458 37.8997Z" fill="#212121"/>
</svg>
