<svg width="306" height="78" viewBox="0 0 306 78" fill="none" xmlns="http://www.w3.org/2000/svg">
<path d="M3 29.3765L24.3479 9.65749C29.8577 4.56809 38.3997 4.72527 43.7185 10.0139L58.5763 24.7874C64.0177 30.1979 72.8003 30.2199 78.2688 24.8368L93.165 10.1733C98.5947 4.82847 107.302 4.80681 112.758 10.1246L128.002 24.9823C133.458 30.3 142.165 30.2784 147.595 24.9335L162.491 10.27C167.96 4.88693 176.742 4.90899 182.184 10.3195L196.831 24.8836C202.234 30.256 210.941 30.321 216.424 25.0298L232.016 9.9823C237.46 4.72883 246.092 4.75008 251.51 10.0303L266.355 24.4991C272.004 30.005 281.085 29.7587 286.427 23.9549L303 5.95053" stroke="#252CDE" stroke-width="4" stroke-linecap="round"/>
<path d="M3 75.3765L24.3479 55.6575C29.8577 50.5681 38.3997 50.7253 43.7185 56.0139L58.5763 70.7874C64.0177 76.1979 72.8003 76.2199 78.2688 70.8368L93.165 56.1733C98.5947 50.8285 107.302 50.8068 112.758 56.1246L128.002 70.9823C133.458 76.3 142.165 76.2784 147.595 70.9335L162.491 56.27C167.96 50.8869 176.742 50.909 182.184 56.3195L196.831 70.8836C202.234 76.256 210.941 76.321 216.424 71.0298L232.016 55.9823C237.46 50.7288 246.092 50.7501 251.51 56.0303L266.355 70.4991C272.004 76.005 281.085 75.7587 286.427 69.9549L303 51.9505" stroke="#252CDE" stroke-width="4" stroke-linecap="round"/>
</svg>
