<svg width="240" height="88" viewBox="0 0 240 88" fill="none" xmlns="http://www.w3.org/2000/svg">
<path d="M66.45 54.2H72.23V78H66.45V69.942C65.0673 70.5313 63.5487 70.826 61.894 70.826C59.242 70.826 57.1567 70.1347 55.638 68.752C54.1193 67.3693 53.36 65.2953 53.36 62.53V54.2H59.208V61.782C59.208 63.0967 59.5253 64.0147 60.16 64.536C60.8173 65.0573 61.8147 65.318 63.152 65.318C64.648 65.318 65.7473 65.0687 66.45 64.57V54.2ZM79.5413 57.328C81.944 54.948 84.902 53.758 88.4153 53.758C91.9287 53.758 94.8753 54.948 97.2553 57.328C99.658 59.6853 100.859 62.6093 100.859 66.1C100.859 69.5907 99.658 72.526 97.2553 74.906C94.8753 77.2633 91.9287 78.442 88.4153 78.442C84.902 78.442 81.944 77.2633 79.5413 74.906C77.1613 72.526 75.9713 69.5907 75.9713 66.1C75.9713 62.6093 77.1613 59.6853 79.5413 57.328ZM93.1413 61.204C91.8947 59.912 90.3193 59.266 88.4153 59.266C86.5113 59.266 84.936 59.912 83.6893 61.204C82.4427 62.4733 81.8193 64.1053 81.8193 66.1C81.8193 68.0947 82.4427 69.738 83.6893 71.03C84.936 72.2993 86.5113 72.934 88.4153 72.934C90.3193 72.934 91.8947 72.2993 93.1413 71.03C94.388 69.738 95.0113 68.0947 95.0113 66.1C95.0113 64.1053 94.388 62.4733 93.1413 61.204ZM121.855 54.2H128.417V78H122.637V62.292L116.687 71.37H116.143L110.193 62.292V78H104.413V54.2H110.975L116.415 62.36L121.855 54.2ZM154.761 54.2L142.963 78H136.503L140.515 69.942L132.491 54.2H138.985L143.711 63.652L148.335 54.2H154.761ZM185.472 54.2H192.034V78H186.254V62.292L180.304 71.37H179.76L173.81 62.292V78H168.03V54.2H174.592L180.032 62.36L185.472 54.2ZM210.864 54.2H217.426V78H211.646V68.038L212.122 63.006L203.18 78H196.618V54.2H202.398V64.162L201.956 69.194L210.864 54.2ZM226.545 69.636V67.834C226.545 66.6553 226.76 65.794 227.191 65.25C227.621 64.706 228.539 64.0713 229.945 63.346C230.919 62.8247 231.554 62.4393 231.849 62.19C232.143 61.9407 232.291 61.5893 232.291 61.136C232.291 59.7987 231.361 59.13 229.503 59.13C228.641 59.13 227.961 59.3453 227.463 59.776C226.964 60.184 226.692 60.966 226.647 62.122H220.833C220.878 59.4927 221.728 57.4413 223.383 55.968C225.06 54.4947 227.179 53.758 229.741 53.758C232.166 53.758 234.161 54.3927 235.725 55.662C237.311 56.9313 238.105 58.688 238.105 60.932C238.105 62.496 237.719 63.6973 236.949 64.536C236.201 65.352 234.999 66.202 233.345 67.086C232.846 67.358 232.529 67.6187 232.393 67.868C232.257 68.1173 232.189 68.4913 232.189 68.99V69.636H226.545ZM231.917 77.524C231.237 78.136 230.375 78.442 229.333 78.442C228.29 78.442 227.429 78.136 226.749 77.524C226.069 76.912 225.729 76.1073 225.729 75.11C225.729 74.1127 226.069 73.308 226.749 72.696C227.429 72.084 228.29 71.778 229.333 71.778C230.375 71.778 231.237 72.084 231.917 72.696C232.597 73.308 232.937 74.1127 232.937 75.11C232.937 76.1073 232.597 76.912 231.917 77.524Z" fill="#212121"/>
<path d="M10.5447 68.3104C7.80233 63.353 4.71501 56.6017 7.30222 50.973C10.4235 44.175 20.4638 43.8645 26.7117 45.1389C30.8595 45.9849 34.6881 47.8403 37.9517 50.5156C39.1815 51.5242 36.4961 52.0307 35.9677 51.9622C31.0551 51.3736 26.4202 49.5395 22.5303 46.4683C18.6404 43.3972 14.921 38.8158 14.8972 33.7717C14.8771 29.7305 17.83 26.5915 21.2742 24.9265C25.3615 22.9447 30.0431 22.9661 34.2891 24.3725C39.7383 26.1737 44.1062 30.1231 48.2421 33.9616L44.2271 34.4505C40.461 25.9644 45.3887 16.1294 53.3507 12.2238C62.6937 7.64764 74.2023 10.341 82.0016 16.6522C86.3445 20.1702 89.7005 24.816 92.1922 29.7875C92.7393 30.8866 90.4308 31.002 89.9815 30.9803C84.741 30.7742 80.8904 26.3681 80.4404 21.3184C80.0314 16.8495 82.1297 12.3009 85.4399 9.352C89.4593 5.77045 95.3231 5.0855 100.446 5.95108C105.988 6.89448 111.079 9.88449 114.731 14.1432C119.094 19.2188 121.57 25.6021 122.998 32.0699C123.35 33.67 119.303 33.5765 118.953 32.2702C116.54 23.1285 112.327 12.8462 102.92 9.03004C99.1155 7.48462 94.6582 7.24098 91.0016 9.36939C87.7119 11.2807 85.4777 14.8802 84.8853 18.6042C84.5635 20.638 84.7078 22.7311 85.5273 24.6335C86.3469 26.5359 87.995 28.7171 90.1659 28.7985L87.9552 29.9914C84.1842 22.459 77.9677 15.1272 69.5248 12.8836C61.082 10.6401 52.6828 13.8426 48.9045 21.6288C47.0009 25.5549 46.6705 30.1955 48.4394 34.2206C48.7771 34.992 47.5802 35.3259 47.0742 35.3852C46.1818 35.4927 45.1036 35.3494 44.4146 34.7113C39.4674 30.1144 32.5775 23.3885 25.205 26.2671C22.333 27.3846 19.762 29.7564 19.296 32.9309C18.6643 37.2397 21.6754 41.4195 24.6386 44.2292C27.772 47.2014 31.8418 49.2776 36.1475 49.8117L34.1635 51.2583C31.2381 48.8372 27.5952 47.2327 23.8185 46.8279C20.0417 46.423 15.5018 46.8631 12.8068 49.6826C7.97573 54.7563 11.8714 63.0573 14.6605 68.1078C15.3599 69.3827 11.254 69.5836 10.5447 68.3104Z" fill="black"/>
</svg>
