<svg width="52" height="60" viewBox="0 0 52 60" fill="none" xmlns="http://www.w3.org/2000/svg">
<path d="M14.824 17.3368C24.2459 17.355 33.6678 17.3732 43.0897 17.3915C45.7621 17.3949 48.4384 17.4127 51.1127 17.381C51.4792 17.3797 51.8938 17.1764 51.6707 16.7647C51.4475 16.353 50.7245 16.2105 50.3024 16.2041C40.8777 16.0635 31.4437 16.1411 22.0218 16.1229L13.9839 16.1066C13.6012 16.1047 13.1692 16.3282 13.4033 16.7523C13.6375 17.1763 14.3922 17.337 14.8357 17.3375L14.824 17.3368Z" fill="black"/>
<path d="M49.8939 16.4174C44.383 25.8868 38.7815 35.3043 33.0874 44.6627C31.4628 47.3369 29.8247 50.0034 28.1865 52.6699C27.7522 53.3752 29.7063 54.0239 30.0588 53.4529C35.8073 44.1257 41.4606 34.7439 47.0258 25.3057C48.6142 22.6106 50.196 19.9058 51.7707 17.203C52.1896 16.4828 50.2303 15.8432 49.8985 16.42L49.8939 16.4174Z" fill="black"/>
<path d="M13.435 16.5025C18.0102 25.8332 21.3931 35.6825 24.9516 45.4331C25.9497 48.1669 26.9666 50.8995 28.0242 53.613C28.1925 54.0476 28.7443 54.249 29.1736 54.2958C29.387 54.3214 30.2079 54.2906 30.0397 53.856C26.2367 44.0921 23.0061 34.1007 18.941 24.4402C17.8033 21.7411 16.601 19.0715 15.3102 16.4417C15.0194 15.8524 13.0079 15.6237 13.4375 16.4979L13.435 16.5025Z" fill="black"/>
<path d="M49.9231 16.0898C41.568 18.875 33.2571 21.7942 24.9956 24.8383C22.641 25.7053 20.2903 26.5867 17.9415 27.4752C17.4842 27.6479 17.8865 28.114 18.1234 28.2678C18.5273 28.5295 19.0989 28.6215 19.5491 28.4507C27.7866 25.3324 36.0689 22.3365 44.3999 19.4771C46.7727 18.6628 49.152 17.8582 51.5333 17.0608C52.0062 16.903 51.5747 16.4142 51.3514 16.2681C50.9339 15.9987 50.3889 15.934 49.9256 16.0852L49.9231 16.0898Z" fill="black"/>
<path d="M47.243 16.0927C40.3966 21.1857 33.6474 26.4249 27.0214 31.8071C25.1405 33.3321 23.2707 34.8695 21.4074 36.4166C21.0486 36.7122 21.7449 37.1354 21.95 37.2288C22.3402 37.398 22.9254 37.4978 23.2843 37.2022C29.8514 31.7439 36.528 26.4208 43.318 21.2473C45.2448 19.7788 47.1755 18.3247 49.1198 16.8783C49.4942 16.5977 48.7642 16.1491 48.5772 16.0662C48.1664 15.8911 47.622 15.8147 47.243 16.0927Z" fill="black"/>
<path d="M21.4403 35.8873C19.1599 37.0263 16.8301 38.0404 14.514 39.1047C14.1026 39.2916 14.4356 39.6999 14.6841 39.8543C15.0705 40.0939 15.6066 40.1957 16.0381 40.0263C18.4081 39.0896 20.7157 37.9661 22.9961 36.8271C23.4062 36.6212 23.0842 36.2253 22.8221 36.0631C22.4557 35.8411 21.8504 35.6814 21.4403 35.8873Z" fill="black"/>
<path d="M18.1317 28.4701C16.4488 32.4154 14.6437 36.3328 13.1089 40.3449C12.8703 40.969 14.724 41.4877 15.024 40.8504C16.8486 36.9622 18.4234 32.9429 20.1044 28.9905C20.3631 28.3839 18.4252 27.7808 18.1317 28.4701Z" fill="black"/>
<path d="M16.3377 41.2297C17.5027 40.9612 18.6768 40.7403 19.8601 40.5668C21.0434 40.3934 22.1927 40.3333 23.4071 40.1897C23.769 40.1435 23.8841 39.823 23.6528 39.5636C23.36 39.2328 22.842 39.099 22.4192 39.1043C21.1722 39.1145 19.9023 39.2926 18.6699 39.4681C17.4375 39.6436 16.2795 39.8678 15.1002 40.1402C14.9561 40.1723 14.7533 40.2554 14.7142 40.4202C14.6751 40.585 14.806 40.7566 14.9174 40.8567C15.2625 41.1692 15.8815 41.3366 16.3422 41.2323L16.3377 41.2297Z" fill="black"/>
<path d="M19.4026 39.4888C20.2355 39.2776 21.0703 39.0735 21.9057 38.8578C22.0407 38.8204 22.2216 38.755 22.2627 38.5974C22.3038 38.4397 22.1813 38.285 22.0764 38.1947C21.8977 38.044 21.6771 37.9357 21.4533 37.886C21.2295 37.8363 20.9844 37.7924 20.7596 37.8508C19.9202 38.0522 19.0829 38.2608 18.2455 38.4694C18.1059 38.5042 17.9225 38.5742 17.8814 38.7318C17.8403 38.8895 17.9647 39.0513 18.0696 39.1416C18.2483 39.2924 18.4735 39.4033 18.7018 39.4556C18.9301 39.5079 19.1778 39.5471 19.4026 39.4888Z" fill="black"/>
<path d="M16.8656 39.166L16.6561 39.1546C16.4233 39.142 16.8074 39.1628 16.6212 39.1527L17.3252 40.1781C18.793 39.7027 20.2764 39.2846 21.7702 38.8905C21.9053 38.8531 22.0861 38.7877 22.1272 38.6301C22.1683 38.4724 22.0458 38.3177 21.9409 38.2274C21.6126 37.9487 21.0525 37.7727 20.6196 37.8809C19.1225 38.249 17.6404 38.686 16.1745 39.1686C16.0556 39.2091 15.8424 39.2681 15.8175 39.429C15.7965 39.5618 15.8561 39.6685 15.9442 39.7673C16.2331 40.0838 16.7053 40.2034 17.1184 40.2046C17.2793 40.2062 17.4351 40.217 17.589 40.2206C17.878 40.2292 18.3352 40.0141 18.0876 39.6669C17.8135 39.2924 17.2916 39.1866 16.861 39.1634L16.8656 39.166Z" fill="black"/>
<path d="M20.6742 39.4096C21.3497 39.0418 22.0252 38.674 22.6922 38.2893C22.8201 38.2116 22.9143 38.1085 22.8855 37.9471C22.8568 37.7857 22.6599 37.6246 22.524 37.5468C22.3066 37.4222 22.0595 37.3289 21.8086 37.3059C21.6043 37.2854 21.3735 37.28 21.1862 37.378C20.4997 37.7335 19.8236 38.113 19.1456 38.4854C19.0132 38.5605 18.921 38.6707 18.9497 38.8321C18.9785 38.9935 19.1798 39.1572 19.3157 39.2351C19.5377 39.3622 19.7894 39.4581 20.0428 39.4765C20.2471 39.497 20.487 39.5076 20.6768 39.405L20.6742 39.4096Z" fill="black"/>
<path d="M21.0469 38.191C21.1214 38.6323 21.196 39.0736 21.2821 39.5155C21.3036 39.5942 21.3464 39.6671 21.4112 39.7223C21.4747 39.8009 21.553 39.8639 21.6436 39.9158C21.7523 39.9781 21.8617 40.0287 21.9788 40.0656C22.1023 40.1123 22.2291 40.1426 22.359 40.1567L22.5989 40.1673C22.7321 40.1651 22.8594 40.1414 22.9814 40.0846L23.1028 39.9971C23.1673 39.9254 23.1904 39.842 23.1676 39.7444C23.1047 39.3037 23.0302 38.8625 22.9576 38.4283C22.9341 38.3425 22.8933 38.2768 22.8285 38.2216C22.765 38.1429 22.6822 38.0773 22.5916 38.0254C22.4829 37.9631 22.369 37.9099 22.2519 37.873C22.1283 37.8264 22.0016 37.796 21.8671 37.7793L21.6272 37.7687C21.4941 37.7709 21.3642 37.7992 21.2402 37.8489L21.1117 37.9383C21.0446 38.0146 21.0215 38.098 21.0443 38.1956L21.0469 38.191Z" fill="black"/>
<path d="M3.79456 19.3615L0.496868 20.2739C0.361834 20.3113 0.183532 20.3722 0.142461 20.5298C0.106544 20.6783 0.223862 20.8421 0.326805 20.9253C0.50098 21.0734 0.717094 21.1791 0.940857 21.2288C1.16462 21.2785 1.40713 21.3269 1.62292 21.2634L4.92514 20.3535C5.06017 20.3162 5.23847 20.2553 5.27954 20.0977C5.31546 19.9492 5.19814 19.7853 5.0952 19.7022C4.92102 19.5541 4.70491 19.4483 4.48115 19.3986C4.25738 19.3489 4.01488 19.3005 3.79909 19.3641L3.79456 19.3615Z" fill="black"/>
<path d="M8.35697 26.924L2.3418 28.5922C2.20676 28.6296 2.02846 28.6904 1.98481 28.8526C1.9489 29.0011 2.06622 29.165 2.17111 29.2553C2.49033 29.5288 3.0615 29.7172 3.48081 29.6011L9.50052 27.9356C9.63555 27.8982 9.81643 27.8328 9.8575 27.6751C9.89599 27.5221 9.7761 27.3628 9.6712 27.2725C9.35198 26.999 8.77629 26.808 8.35439 26.9286L8.35697 26.924Z" fill="black"/>
<path d="M16.3483 44.3709C14.4025 45.0132 12.4541 45.6601 10.5127 46.305C10.3751 46.3469 10.1949 46.4006 10.1557 46.5654C10.1173 46.7185 10.2417 46.8803 10.342 46.968C10.6502 47.2292 11.2525 47.4475 11.6634 47.3145C13.6138 46.6748 15.5622 46.0279 17.508 45.3856C17.6482 45.3391 17.8259 45.29 17.8721 45.1232C17.9106 44.9702 17.7888 44.8037 17.6839 44.7134C17.3711 44.4497 16.7644 44.2288 16.3535 44.3617L16.3483 44.3709Z" fill="black"/>
<path d="M25.5265 55.065C23.6735 55.5431 21.8249 56.0238 19.9718 56.5019C19.8368 56.5392 19.6514 56.6021 19.6103 56.7597C19.5692 56.9173 19.6937 57.0792 19.8011 57.1649C20.1294 57.4436 20.6941 57.6223 21.127 57.514C22.9846 57.0386 24.8377 56.5605 26.6908 56.0824C26.8303 56.0476 27.0138 55.9776 27.0549 55.82C27.0959 55.6624 26.9715 55.5005 26.8666 55.4102C26.5338 55.1289 25.9646 54.9477 25.5291 55.0605L25.5265 55.065Z" fill="black"/>
</svg>
