<svg width="18" height="20" viewBox="0 0 18 20" fill="none" xmlns="http://www.w3.org/2000/svg">
<path d="M9 11.8334C8.74028 11.8334 8.52272 11.7454 8.34733 11.5694C8.17133 11.394 8.08333 11.1764 8.08333 10.9167C8.08333 10.657 8.17133 10.4391 8.34733 10.2631C8.52272 10.0877 8.74028 10 9 10C9.25972 10 9.47758 10.0877 9.65358 10.2631C9.82897 10.4391 9.91667 10.657 9.91667 10.9167C9.91667 11.1764 9.82897 11.394 9.65358 11.5694C9.47758 11.7454 9.25972 11.8334 9 11.8334ZM5.33333 11.8334C5.07361 11.8334 4.85575 11.7454 4.67975 11.5694C4.50436 11.394 4.41667 11.1764 4.41667 10.9167C4.41667 10.657 4.50436 10.4391 4.67975 10.2631C4.85575 10.0877 5.07361 10 5.33333 10C5.59306 10 5.81092 10.0877 5.98692 10.2631C6.16231 10.4391 6.25 10.657 6.25 10.9167C6.25 11.1764 6.16231 11.394 5.98692 11.5694C5.81092 11.7454 5.59306 11.8334 5.33333 11.8334ZM12.6667 11.8334C12.4069 11.8334 12.1894 11.7454 12.014 11.5694C11.838 11.394 11.75 11.1764 11.75 10.9167C11.75 10.657 11.838 10.4391 12.014 10.2631C12.1894 10.0877 12.4069 10 12.6667 10C12.9264 10 13.1439 10.0877 13.3193 10.2631C13.4953 10.4391 13.5833 10.657 13.5833 10.9167C13.5833 11.1764 13.4953 11.394 13.3193 11.5694C13.1439 11.7454 12.9264 11.8334 12.6667 11.8334ZM9 15.5C8.74028 15.5 8.52272 15.412 8.34733 15.236C8.17133 15.0607 8.08333 14.8431 8.08333 14.5834C8.08333 14.3237 8.17133 14.1061 8.34733 13.9307C8.52272 13.7547 8.74028 13.6667 9 13.6667C9.25972 13.6667 9.47758 13.7547 9.65358 13.9307C9.82897 14.1061 9.91667 14.3237 9.91667 14.5834C9.91667 14.8431 9.82897 15.0607 9.65358 15.236C9.47758 15.412 9.25972 15.5 9 15.5ZM5.33333 15.5C5.07361 15.5 4.85575 15.412 4.67975 15.236C4.50436 15.0607 4.41667 14.8431 4.41667 14.5834C4.41667 14.3237 4.50436 14.1061 4.67975 13.9307C4.85575 13.7547 5.07361 13.6667 5.33333 13.6667C5.59306 13.6667 5.81092 13.7547 5.98692 13.9307C6.16231 14.1061 6.25 14.3237 6.25 14.5834C6.25 14.8431 6.16231 15.0607 5.98692 15.236C5.81092 15.412 5.59306 15.5 5.33333 15.5ZM12.6667 15.5C12.4069 15.5 12.1894 15.412 12.014 15.236C11.838 15.0607 11.75 14.8431 11.75 14.5834C11.75 14.3237 11.838 14.1061 12.014 13.9307C12.1894 13.7547 12.4069 13.6667 12.6667 13.6667C12.9264 13.6667 13.1439 13.7547 13.3193 13.9307C13.4953 14.1061 13.5833 14.3237 13.5833 14.5834C13.5833 14.8431 13.4953 15.0607 13.3193 15.236C13.1439 15.412 12.9264 15.5 12.6667 15.5ZM2.58333 19.1667C2.07917 19.1667 1.64742 18.9873 1.28808 18.6286C0.929361 18.2693 0.75 17.8375 0.75 17.3334V4.50004C0.75 3.99587 0.929361 3.56443 1.28808 3.20571C1.64742 2.84637 2.07917 2.66671 2.58333 2.66671H3.5V1.75004C3.5 1.49032 3.58769 1.27246 3.76308 1.09646C3.93908 0.921068 4.15694 0.833374 4.41667 0.833374C4.67639 0.833374 4.89425 0.921068 5.07025 1.09646C5.24564 1.27246 5.33333 1.49032 5.33333 1.75004V2.66671H12.6667V1.75004C12.6667 1.49032 12.7547 1.27246 12.9307 1.09646C13.1061 0.921068 13.3236 0.833374 13.5833 0.833374C13.8431 0.833374 14.0606 0.921068 14.236 1.09646C14.412 1.27246 14.5 1.49032 14.5 1.75004V2.66671H15.4167C15.9208 2.66671 16.3526 2.84637 16.7119 3.20571C17.0706 3.56443 17.25 3.99587 17.25 4.50004V17.3334C17.25 17.8375 17.0706 18.2693 16.7119 18.6286C16.3526 18.9873 15.9208 19.1667 15.4167 19.1667H2.58333ZM2.58333 17.3334H15.4167V8.16671H2.58333V17.3334ZM2.58333 6.33337H15.4167V4.50004H2.58333V6.33337Z" fill="#212121" fill-opacity="0.62"/>
</svg>
