<svg width="66" height="134" viewBox="0 0 66 134" fill="none" xmlns="http://www.w3.org/2000/svg">
<path d="M13.2926 5.86818C20.5598 6.754 27.9838 7.94833 33.6069 12.9563C38.6279 17.4353 41.4372 23.8441 42.4516 30.3488C43.5534 37.4321 42.2051 44.7647 39.4727 51.3658C38.0674 54.7618 36.3255 58.0032 34.3321 61.1004C33.3368 62.6335 32.2834 64.1395 31.1891 65.6044C30.0949 67.0693 28.9856 68.558 27.4319 69.5721C26.0996 70.4327 24.382 70.7643 22.8738 70.2039C21.2757 69.6139 20.4462 68.0516 20.1798 66.4691C19.5794 62.8933 21.1534 58.9095 22.995 55.8681C26.5488 49.9782 33.7177 44.7336 41.0172 46.4851C48.3167 48.2366 52.1324 55.7398 53.1224 62.6157C54.1123 69.4916 53.2616 77.52 51.6612 84.5767C48.6283 97.9704 42.0769 110.605 32.5431 120.669C31.3663 121.919 30.1344 123.112 28.8615 124.263C27.4035 125.59 26.8787 121.468 27.8733 120.535C36.7302 112.254 43.5215 102.082 47.4683 90.6875C49.4127 85.0632 50.6901 79.1992 51.1178 73.2805C51.5883 66.8949 51.5209 59.7316 47.0149 54.6445C44.9888 52.3575 42.1888 50.719 39.0728 50.4746C35.9568 50.2302 32.6255 51.3259 29.9454 53.1117C27.2652 54.8976 25.2029 57.3205 23.7672 60.0737C23.152 61.2537 22.6403 62.5211 22.3427 63.8195C22.2079 64.4198 22.0616 64.9719 22.4912 65.4703C22.995 66.063 23.8431 66.2399 24.5962 66.236C27.7085 66.2071 29.7136 62.5994 31.2785 60.3845C33.1589 57.7199 34.8655 54.9336 36.3252 52.0224C38.9992 46.684 40.8531 40.7255 40.6507 34.7209C40.4402 28.4239 37.9537 22.112 33.4619 17.6003C28.095 12.1972 20.4692 10.9791 13.183 10.0572C11.6698 9.86353 11.9009 5.70702 13.3145 5.87321L13.3122 5.8636L13.2926 5.86818Z" fill="#212121"/>
<path d="M31.2684 109.646L26.5098 120.752L24.2209 126.102C23.587 127.591 22.5804 129.248 22.6266 130.902L21.8844 128.802C23.558 129.405 25.5175 128.661 27.1251 128.173C28.9432 127.615 30.7428 126.98 32.5448 126.355C36.1585 125.102 39.9545 123.705 43.8175 123.49C45.2759 123.412 45.152 127.411 43.6863 127.674C39.5653 128.406 35.6916 129.608 31.7546 130.977C29.8181 131.644 27.8838 132.321 25.8931 132.848C24.2716 133.279 22.7841 133.536 21.1687 132.96C20.4896 132.713 20.4437 131.404 20.4265 130.86C20.3685 128.812 21.0758 126.94 21.878 125.077C22.7582 123.023 23.6385 120.968 24.5165 118.904L29.8057 106.566C30.1703 105.719 30.9915 105.913 31.3551 106.61C31.8374 107.542 31.6583 108.732 31.2609 109.658L31.2684 109.646Z" fill="#212121"/>
</svg>
