<svg width="870" height="20" viewBox="0 0 870 20" fill="none" xmlns="http://www.w3.org/2000/svg">
<path fill-rule="evenodd" clip-rule="evenodd" d="M659.531 9.62918C641.149 12.4986 621.9 15.5034 592.374 16.0003C548.923 16.7314 483.983 19.1066 469.343 19.6538C467.28 19.731 465.254 19.7462 463.18 19.6844C454.714 19.4319 428.855 18.5311 389.097 15.9965C380.58 15.4535 353.992 16.6383 326.45 17.8656C325.306 17.9166 324.16 17.9676 323.014 18.0186C308.696 18.6558 294.363 19.2824 282.483 19.655C270.654 20.0261 261.118 20.1511 256.481 19.7615C249.059 19.138 242.363 18.5663 236.243 18.0437C182.639 13.4664 173.254 12.665 108.103 13.9906C87.4093 14.4117 60.9216 15.6661 39.5927 16.8163C28.9313 17.3913 19.5647 17.9399 12.8635 18.3448C9.51305 18.5472 6.82906 18.7137 4.98297 18.8296C4.05993 18.8875 3.34637 18.9328 2.86371 18.9636L2.13058 19.0106C2.13012 19.0106 2.1299 19.0106 2.00122 17.0053C1.87254 14.9999 1.87281 14.9999 1.87333 14.9999L2.61003 14.9527C3.09397 14.9218 3.80887 14.8765 4.73331 14.8184C6.58219 14.7024 9.26928 14.5357 12.6232 14.3331C19.3308 13.9278 28.7062 13.3787 39.378 12.8031C60.7153 11.6524 87.2581 10.3949 108.022 9.97248C173.378 8.64267 182.893 9.45504 236.616 14.0421C242.727 14.5639 249.411 15.1346 256.814 15.7565C261.175 16.1229 270.458 16.0113 282.358 15.638C294.207 15.2663 308.514 14.641 322.837 14.0036C324.12 13.9465 325.403 13.8893 326.684 13.8322C353.932 12.6175 380.608 11.4283 389.35 11.9856C429.059 14.5171 454.873 15.4159 463.299 15.6672C465.274 15.7261 467.21 15.7118 469.194 15.6376C483.828 15.0906 548.809 12.7138 592.307 11.9818C621.553 11.4897 640.57 8.52138 658.927 5.65617C660.399 5.4264 661.867 5.19729 663.335 4.97017C683.174 1.90197 703.081 -0.791203 734.985 0.214194C747.646 0.613173 762.146 4.09717 776.491 7.54385C777.381 7.75768 778.271 7.97137 779.159 8.18417C794.501 11.8595 809.535 15.2737 822.43 14.9962C831.279 14.8059 842.615 14.056 851.763 13.3508C856.331 12.9987 860.345 12.6584 863.216 12.4063C864.651 12.2802 865.801 12.1762 866.591 12.1037C866.986 12.0674 867.291 12.0391 867.498 12.0198L867.809 11.9906C867.809 11.9906 867.81 11.9905 867.999 13.991L867.81 11.9905C868.911 11.886 869.887 12.697 869.991 13.8019C870.095 14.9068 869.287 15.8872 868.187 15.9916L868.163 15.7416C868.187 15.9916 868.187 15.9916 868.187 15.9916L868.186 15.9917L868.182 15.9921L867.868 16.0215C867.66 16.041 867.352 16.0695 866.955 16.106C866.16 16.1789 865.006 16.2834 863.565 16.41C860.683 16.6631 856.655 17.0045 852.069 17.358C842.907 18.0642 831.48 18.8214 822.515 19.0143C809.014 19.3048 793.467 15.7435 778.23 12.0934C777.389 11.892 776.549 11.6903 775.711 11.4888C761.217 8.00829 747.094 4.61675 734.859 4.2312C703.298 3.23657 683.658 5.89342 663.944 8.94232C662.475 9.16949 661.006 9.3989 659.531 9.62918ZM0.00420955 17.1345C-0.0668586 16.027 0.770414 15.0713 1.87333 14.9999L2.00122 17.0053L2.13058 19.0106C1.02766 19.0819 0.0752776 18.242 0.00420955 17.1345Z" fill="#212121"/>
</svg>
