<svg width="128" height="88" viewBox="0 0 128 88" fill="none" xmlns="http://www.w3.org/2000/svg">
<path d="M3.83921 47.6447C16.1697 39.2905 30.352 33.7877 45.092 31.3678C59.832 28.948 74.7892 29.5098 89.1374 33.1906C97.291 35.2792 105.019 38.4144 112.451 42.3466C113.212 42.7464 114.469 42.8575 115.239 42.468C115.872 42.1401 115.982 41.448 115.271 41.0587C101.488 33.3605 85.7801 29.1666 70.0835 28.0513C54.4914 26.948 38.5976 29.04 23.9222 34.3113C15.6711 37.2754 7.79101 41.2444 0.567461 46.1662C-0.17638 46.6753 0.529088 47.3338 1.09258 47.6061C1.82843 47.9625 3.11642 48.1302 3.84848 47.6487L3.83921 47.6447Z" fill="black"/>
<path d="M100.569 29.1151C104.479 31.3322 108.323 33.6517 112.094 36.092C113.94 37.2897 115.773 38.5151 117.586 39.7641C118.526 40.4136 119.462 41.0722 120.384 41.7361C121.037 42.2094 121.657 42.5815 121.761 43.4406L123.892 42.457C115.489 41.1312 106.9 40.9862 98.4858 42.1757C97.8102 42.2685 97.0713 42.7146 97.5812 43.4202C98.0911 44.1259 99.4715 44.2568 100.256 44.1667C108.034 43.2067 115.854 43.2527 123.608 44.4545C124.319 44.5614 125.883 44.5204 125.739 43.4709C125.494 41.6831 123.137 40.5283 121.819 39.6093C119.873 38.2604 117.911 36.926 115.928 35.6375C111.888 33.0066 107.77 30.5056 103.566 28.1307C102.761 27.6797 101.668 27.3887 100.755 27.7282C100.073 27.9918 99.7967 28.689 100.555 29.1203L100.569 29.1151Z" fill="black"/>
</svg>
