<svg width="195" height="52" viewBox="0 0 195 52" fill="none" xmlns="http://www.w3.org/2000/svg">
<path d="M2.5 17.5L16.5299 5.37586C20.0528 2.33151 25.3162 2.47675 28.6658 5.71076L38.2818 14.9948C41.7566 18.3497 47.2601 18.3635 50.7517 15.0261L60.2845 5.91443C63.7509 2.6011 69.2065 2.58755 72.6893 5.88361L82.4454 15.1164C85.9283 18.4124 91.3838 18.3989 94.8503 15.0856L104.383 5.97387C107.875 2.63651 113.378 2.65032 116.853 6.00518L126.225 15.054C129.675 18.3849 135.131 18.4256 138.631 15.1464L148.609 5.79531C152.083 2.5399 157.492 2.5532 160.95 5.82564L170.328 14.701C173.985 18.1613 179.768 17.9496 183.162 14.2313L192.5 4" stroke="#252CDE" stroke-width="4" stroke-linecap="round"/>
<path d="M2.5 48.5L16.5299 36.3759C20.0528 33.3315 25.3162 33.4768 28.6658 36.7108L38.2818 45.9948C41.7566 49.3497 47.2601 49.3635 50.7517 46.0261L60.2845 36.9144C63.7509 33.6011 69.2065 33.5875 72.6893 36.8836L82.4454 46.1164C85.9283 49.4124 91.3838 49.3989 94.8503 46.0856L104.383 36.9739C107.875 33.6365 113.378 33.6503 116.853 37.0052L126.225 46.054C129.675 49.3849 135.131 49.4256 138.631 46.1464L148.609 36.7953C152.083 33.5399 157.492 33.5532 160.95 36.8256L170.328 45.701C173.985 49.1613 179.768 48.9496 183.162 45.2313L192.5 35" stroke="#252CDE" stroke-width="4" stroke-linecap="round"/>
</svg>
