<svg width="91" height="70" viewBox="0 0 91 70" fill="none" xmlns="http://www.w3.org/2000/svg">
<path d="M8.58233 53.9549C8.24662 53.807 8.01966 53.6508 7.90148 53.4863C7.78329 53.3218 7.65128 53.0999 7.50546 52.8205C7.35965 52.5412 7.27843 52.2928 7.26182 52.0753C7.25734 51.8191 7.42017 51.6048 7.75029 51.4325C7.95344 51.3264 8.15771 51.2844 8.3631 51.3065C8.56849 51.3285 8.78107 51.3953 9.00083 51.5067C9.23273 51.5796 9.43317 51.685 9.60215 51.823C9.75787 51.9356 9.90752 52.0675 10.0511 52.2187C10.8993 53.1008 11.6565 53.9012 12.3225 54.6199C12.9885 55.3386 13.623 56.0899 14.2261 56.8737C14.8413 57.6189 15.4576 58.4282 16.0751 59.3015C16.6793 60.1494 17.3498 61.1242 18.0865 62.2261L18.8254 62.7129C19.002 62.556 19.1587 62.3611 19.2956 62.1281C19.4325 61.8951 19.5246 61.6692 19.5721 61.4506C19.6062 61.2066 19.6509 60.8278 19.706 60.3143C19.7732 59.7622 19.846 59.1587 19.9242 58.5039C20.0146 57.8104 20.1111 57.0977 20.2136 56.3655C20.3161 55.6334 20.4065 54.9399 20.4847 54.2851C20.5751 53.5917 20.6606 52.9816 20.7411 52.4548C20.8216 51.9281 20.8723 51.53 20.8932 51.2606C20.9505 50.8752 21.0161 50.5986 21.0901 50.4307C21.1508 50.2375 21.3335 50.0613 21.6382 49.9022C21.8922 49.7697 22.3156 49.8071 22.9086 50.0146C23.5138 50.1834 24.2233 50.4593 25.0372 50.8423C25.8632 51.1866 26.729 51.6071 27.6346 52.1038C28.5269 52.5751 29.3933 53.0276 30.2337 53.4614C31.0995 53.8819 31.8814 54.2655 32.5793 54.612C33.3026 54.9453 33.8631 55.1213 34.2606 55.14C34.286 55.1267 34.318 55.1262 34.3566 55.1383C34.382 55.1251 34.4074 55.1118 34.4328 55.0986L34.5471 55.0389C34.5725 55.0256 34.5913 54.9997 34.6034 54.961L34.7855 54.3813L31.5238 38.1981C31.4531 37.8149 31.4166 37.5593 31.4143 37.4312C31.4121 37.3031 31.538 37.1728 31.7919 37.0403C32.0458 36.9077 32.2694 36.8718 32.4627 36.9324C32.6681 36.9545 32.868 37.0279 33.0623 37.1526C33.2434 37.2519 33.3997 37.3966 33.5312 37.5865C33.688 37.7631 33.8194 37.953 33.9255 38.1561C34.0713 38.4355 34.2531 38.9384 34.4708 39.6649C34.7006 40.3528 34.9327 41.1688 35.167 42.1128C35.4267 43.0436 35.682 44.0898 35.9329 45.2514C36.196 46.3743 36.4143 47.5044 36.5879 48.6417C36.7615 49.779 36.9092 50.8976 37.0309 51.9973C37.1648 53.0585 37.2395 54.0373 37.2552 54.9339C37.2708 55.8306 37.2136 56.5875 37.0834 57.2048C36.94 57.7967 36.7032 58.1788 36.3731 58.3511C36.3477 58.3644 36.2776 58.3848 36.1628 58.4125C36.0866 58.4522 36.0358 58.4788 36.0104 58.492C34.9039 58.2295 33.835 57.915 32.8036 57.5486C31.7975 57.169 30.8103 56.7634 29.8418 56.3319C28.86 55.875 27.8783 55.418 26.8965 54.9611C25.9402 54.4909 24.9385 53.9959 23.8916 53.4761C23.853 53.4639 23.769 53.427 23.6398 53.3652C23.5106 53.3034 23.4333 53.2791 23.4079 53.2923C23.3571 53.3188 23.3124 53.326 23.2738 53.3139C23.223 53.3404 23.1976 53.3537 23.1976 53.3537C23.1843 53.3283 23.165 53.3222 23.1396 53.3355C22.8095 53.5078 22.5672 53.9413 22.4128 54.6358C22.2705 55.2918 22.1625 56.0752 22.0887 56.9862C22.0149 57.8972 21.9362 58.8916 21.8525 59.9693C21.7942 61.0338 21.6901 62.0414 21.5401 62.9922C21.3769 63.9176 21.1546 64.7607 20.8732 65.5215C20.6039 66.2438 20.19 66.7507 19.6313 67.0423C19.6313 67.0423 19.58 67.0368 19.4773 67.0258C19.3746 67.0148 19.2652 66.9911 19.1493 66.9547C19.0455 66.8796 18.9356 66.8238 18.8196 66.7874C18.6904 66.7256 18.5999 66.676 18.548 66.6384C18.5093 66.6263 18.4701 66.5821 18.4303 66.5059C18.3773 66.4044 18.3569 66.3343 18.369 66.2956L8.58233 53.9549ZM42.1766 49.5535C41.7259 48.6901 41.4143 47.7218 41.2418 46.6485C41.0693 45.5753 41.0635 44.5119 41.2245 43.4584C41.4109 42.3917 41.7717 41.4117 42.3071 40.5182C42.8424 39.6248 43.618 38.913 44.6337 38.3827C46.0558 37.6403 47.3222 37.157 48.433 36.9326C49.5438 36.7082 50.5564 36.7289 51.4707 36.9948C52.3718 37.2353 53.188 37.7464 53.9191 38.528C54.6624 39.271 55.3522 40.2519 55.9885 41.4708C56.0283 41.547 56.0951 41.706 56.1891 41.9478C56.2951 42.151 56.4078 42.3668 56.5271 42.5954C56.6464 42.8239 56.753 43.0591 56.8469 43.3009C56.953 43.504 57.0325 43.6564 57.0855 43.758C57.2392 44.4856 57.1681 45.1852 56.8723 45.8566C56.5887 46.4894 56.1698 47.0797 55.6156 47.6275C55.0868 48.162 54.4868 48.653 53.8155 49.1004C53.1696 49.5345 52.5674 49.8973 52.0087 50.189C51.2215 50.5999 50.3697 50.98 49.4532 51.3291C48.5368 51.6782 47.6182 51.8993 46.6973 51.9922C45.7885 52.0466 44.9404 51.9076 44.1531 51.5754C43.3524 51.2178 42.6936 50.5439 42.1766 49.5535ZM43.8227 48.0641C44.1673 48.7243 44.6428 49.1709 45.2491 49.4037C45.8675 49.5979 46.5157 49.6635 47.1936 49.6004C47.8716 49.5373 48.5479 49.3781 49.2225 49.1229C49.9225 48.8544 50.5011 48.6009 50.9582 48.3623C51.4153 48.1237 51.8089 47.9182 52.139 47.7459C52.4945 47.5603 52.8174 47.3432 53.1078 47.0947C53.3982 46.8462 53.6813 46.553 53.9573 46.215C54.2333 45.8771 54.5396 45.4425 54.8763 44.9113C54.9181 44.3724 54.8523 43.9059 54.6788 43.5117C54.4921 43.0922 54.2861 42.6665 54.0607 42.2348C53.61 41.3714 53.0473 40.6958 52.3725 40.2079C51.6977 39.72 50.9749 39.4187 50.2042 39.304C49.4334 39.1894 48.6213 39.274 47.7678 39.558C46.9264 39.8033 46.0823 40.2601 45.2356 40.9283C44.8944 41.2034 44.582 41.6573 44.2984 42.29C44.0147 42.9228 43.8023 43.5992 43.6612 44.3192C43.52 45.0392 43.4555 45.7514 43.4679 46.4559C43.4923 47.1217 43.6106 47.6578 43.8227 48.0641ZM55.8347 34.9106C55.6624 34.5805 55.579 34.2039 55.5844 33.781C55.6152 33.3448 55.8211 33.0273 56.202 32.8285C56.6845 32.5766 57.114 32.5947 57.4906 32.8829C57.8926 33.1577 58.2582 33.5485 58.5874 34.0553C58.9287 34.5234 59.2324 35.0434 59.4987 35.6153C59.7517 36.1619 59.9897 36.5869 60.2129 36.8906C60.3056 37.0683 60.4901 37.3598 60.7663 37.765C61.0545 38.1315 61.3627 38.5361 61.6908 38.9788C62.0056 39.3962 62.3137 39.8008 62.6153 40.1927C62.9168 40.5847 63.1394 40.8562 63.2829 41.0075C63.3083 40.9942 63.4038 40.9605 63.5695 40.9064C63.7605 40.839 63.8687 40.7987 63.8941 40.7854C64.3766 40.5335 64.71 40.1818 64.8943 39.7301C65.0653 39.253 65.1464 38.7583 65.1374 38.246C65.1406 37.695 65.0858 37.1258 64.973 36.5383C64.8857 35.9377 64.8248 35.3878 64.7905 34.8887C64.7683 34.3509 64.8112 33.8761 64.9194 33.4642C65.0529 33.0391 65.3101 32.7271 65.691 32.5282C66.2243 32.2498 66.7482 32.1702 67.2628 32.2894C67.8028 32.3952 68.3571 32.5906 68.9259 32.8753C69.5067 33.1214 70.076 33.4382 70.6338 33.8257C71.2036 34.1745 71.7856 34.4846 72.3797 34.7561C72.986 34.989 73.5845 35.1451 74.1753 35.2245C74.7661 35.3038 75.3408 35.1977 75.8994 34.9061C75.9248 34.8928 76.0071 34.8337 76.1462 34.7288C76.3107 34.6106 76.4056 34.5449 76.431 34.5316C76.4873 34.0822 76.4639 33.4804 76.3611 32.7262C76.2582 31.9721 76.1288 31.1671 75.9729 30.3114C75.8292 29.417 75.6728 28.5293 75.5036 27.6481C75.3599 26.7538 75.2366 25.9295 75.1337 25.1753C75.043 24.3825 75.0252 23.7294 75.0802 23.2159C75.1353 22.7024 75.2645 22.3927 75.4676 22.2866C75.493 22.2734 75.5057 22.2667 75.5057 22.2667C75.5311 22.2535 75.5692 22.2336 75.62 22.2071L75.6581 22.1872C75.7221 22.1861 75.7994 22.2104 75.89 22.26C75.9927 22.2711 76.1086 22.3075 76.2378 22.3693C76.3792 22.3924 76.4951 22.4288 76.5857 22.4785C76.7016 22.5149 76.7789 22.5392 76.8176 22.5513L76.8574 22.6275C76.8706 22.6529 76.8839 22.6783 76.8971 22.7037C76.9358 22.7158 76.9551 22.7219 76.9551 22.7219C76.9551 22.7219 76.9557 22.7539 76.9568 22.818C76.9833 22.8688 77.0032 22.9069 77.0164 22.9322C77.0463 23.1752 77.1171 23.5583 77.2287 24.0817C77.3271 24.5797 77.4332 25.1544 77.5471 25.8058C77.661 26.4573 77.7947 27.1469 77.9484 27.8745C78.0888 28.5768 78.2226 29.2663 78.3497 29.9432C78.4768 30.62 78.5769 31.2141 78.6499 31.7253C78.7229 32.2365 78.7936 32.6197 78.8622 32.8747C78.8965 33.3738 78.911 33.8348 78.9055 34.2578C78.899 34.6166 78.8665 34.9567 78.808 35.2781C78.775 35.5862 78.695 35.7733 78.568 35.8396L74.8351 37.7883C74.5304 37.9474 74.1533 37.9988 73.7038 37.9426C73.2798 37.8731 72.8293 37.7529 72.3522 37.5818C71.8873 37.3721 71.3964 37.1437 70.8796 36.8964C70.3749 36.6106 69.8961 36.3434 69.4434 36.0951C68.9906 35.8468 68.5704 35.6299 68.1828 35.4444C67.7951 35.259 67.492 35.1426 67.2734 35.0952C66.9124 35.7037 66.679 36.2779 66.5731 36.8179C66.4672 37.3579 66.4254 37.8968 66.4476 38.4345C66.4566 38.9469 66.4782 39.4526 66.5125 39.9517C66.5336 40.4254 66.4907 40.9002 66.3837 41.3761C66.2634 41.8267 66.0211 42.2602 65.6568 42.6765C65.3179 43.0796 64.7676 43.48 64.0057 43.8777C63.7518 44.0103 63.3786 43.9143 62.886 43.5898C62.4189 43.252 61.9047 42.7933 61.3437 42.2137C60.7826 41.6341 60.1944 40.9717 59.5792 40.2265C58.9894 39.4681 58.4322 38.7411 57.9075 38.0455C57.395 37.3113 56.9482 36.6721 56.5671 36.1278C56.2114 35.5703 55.9673 35.1645 55.8347 34.9106ZM80.9665 21.3549C80.4063 20.0963 79.881 18.9971 79.3906 18.0575C78.9001 17.118 78.4179 16.2872 77.944 15.5651C77.4823 14.8044 77.0151 14.0951 76.5423 13.437C76.0696 12.779 75.5835 12.0956 75.0843 11.3868C74.5972 10.6394 74.0703 9.81578 73.5036 8.91597C72.9623 8.0029 72.3735 6.93692 71.7372 5.71801L71.598 5.45137C71.5185 5.299 71.439 5.14664 71.3594 4.99428C71.3053 4.82866 71.2384 4.66966 71.1589 4.5173L70.9998 4.21257C70.9987 4.14853 71.0224 4.03921 71.071 3.8846C71.1063 3.70461 71.1609 3.53068 71.2348 3.36283C71.2955 3.16957 71.3501 2.99565 71.3987 2.84105C71.4472 2.68645 71.4903 2.58319 71.5278 2.53129C71.5532 2.51803 71.6813 2.51579 71.9121 2.52457L72.4885 2.51451L73.0483 2.65848C73.2991 3.07692 73.6089 3.57761 73.9779 4.16056C74.3468 4.7435 74.7296 5.38386 75.1261 6.08163C75.5349 6.74076 75.9568 7.42528 76.392 8.13519C76.814 8.81971 77.2293 9.49153 77.6381 10.1507C78.0468 10.8098 78.4229 11.4374 78.7664 12.0336C79.11 12.6298 79.4198 13.1305 79.696 13.5357C79.7611 13.5986 79.8865 13.8079 80.0721 14.1634C80.2577 14.5189 80.4505 14.9191 80.6504 15.3641C80.8625 15.7704 81.068 16.164 81.2668 16.5449L81.6248 17.2305C81.7164 17.3443 81.8479 17.5342 82.0191 17.8002C82.177 18.0409 82.3549 18.3197 82.5526 18.6366C82.7625 18.9148 82.9596 19.1996 83.1441 19.4911L83.5186 20.0227C83.5385 20.4323 83.4735 20.741 83.3233 20.9486C83.1853 21.1176 82.9513 21.2882 82.6212 21.4606C82.3418 21.6064 82.068 21.7009 81.7997 21.744C81.5435 21.7485 81.2658 21.6188 80.9665 21.3549ZM84.9436 30.0878C84.7845 29.7831 84.7215 29.4767 84.7546 29.1686C84.7744 28.8351 84.8588 28.5326 85.0078 28.2609C85.1435 27.9638 85.3439 27.6977 85.6089 27.4624C85.8738 27.2272 86.1587 27.03 86.4634 26.8709C86.7681 26.7118 87.0745 26.6488 87.3826 26.6819C87.7028 26.6763 88.0115 26.7414 88.3085 26.8771C88.6177 26.9742 88.8833 27.1426 89.1053 27.3821C89.3527 27.6084 89.5493 27.8613 89.6952 28.1406C89.841 28.4199 89.8974 28.7136 89.8643 29.0217C89.818 29.3044 89.7016 29.6075 89.515 29.9311C89.3406 30.216 89.1403 30.4822 88.914 30.7296C88.6744 30.9516 88.453 31.1156 88.2499 31.2217C87.5389 31.5928 86.8929 31.6554 86.312 31.4093C85.7312 31.1632 85.275 30.7227 84.9436 30.0878Z" fill="#212121"/>
</svg>
