<svg width="32" height="32" viewBox="0 0 32 32" fill="none" xmlns="http://www.w3.org/2000/svg">
<path d="M16 10.25C14.8628 10.25 13.7511 10.5872 12.8055 11.219C11.8599 11.8509 11.1229 12.7489 10.6877 13.7996C10.2525 14.8502 10.1386 16.0064 10.3605 17.1218C10.5823 18.2372 11.13 19.2617 11.9341 20.0659C12.7383 20.87 13.7628 21.4177 14.8782 21.6395C15.9936 21.8614 17.1498 21.7475 18.2004 21.3123C19.2511 20.8771 20.1491 20.1401 20.781 19.1945C21.4128 18.2489 21.75 17.1372 21.75 16C21.75 14.475 21.1442 13.0125 20.0659 11.9341C18.9875 10.8558 17.525 10.25 16 10.25ZM16 18.75C15.4561 18.75 14.9244 18.5887 14.4722 18.2865C14.0199 17.9844 13.6675 17.5549 13.4593 17.0524C13.2512 16.5499 13.1967 15.997 13.3028 15.4635C13.4089 14.9301 13.6709 14.4401 14.0555 14.0555C14.4401 13.6709 14.9301 13.4089 15.4635 13.3028C15.997 13.1967 16.5499 13.2512 17.0524 13.4593C17.5549 13.6675 17.9844 14.0199 18.2865 14.4722C18.5887 14.9244 18.75 15.4561 18.75 16C18.7467 16.7283 18.4559 17.4259 17.9409 17.9409C17.4259 18.4559 16.7283 18.7467 16 18.75ZM22 2.5H10C8.01088 2.5 6.10322 3.29018 4.6967 4.6967C3.29018 6.10322 2.5 8.01088 2.5 10V22C2.5 23.9891 3.29018 25.8968 4.6967 27.3033C6.10322 28.7098 8.01088 29.5 10 29.5H22C23.9891 29.5 25.8968 28.7098 27.3033 27.3033C28.7098 25.8968 29.5 23.9891 29.5 22V10C29.5 8.01088 28.7098 6.10322 27.3033 4.6967C25.8968 3.29018 23.9891 2.5 22 2.5ZM26.5 22C26.5 23.1935 26.0259 24.3381 25.182 25.182C24.3381 26.0259 23.1935 26.5 22 26.5H10C8.80653 26.5 7.66193 26.0259 6.81802 25.182C5.97411 24.3381 5.5 23.1935 5.5 22V10C5.5 8.80653 5.97411 7.66193 6.81802 6.81802C7.66193 5.97411 8.80653 5.5 10 5.5H22C23.1935 5.5 24.3381 5.97411 25.182 6.81802C26.0259 7.66193 26.5 8.80653 26.5 10V22ZM24.5 9.5C24.5 9.89556 24.3827 10.2822 24.1629 10.6111C23.9432 10.94 23.6308 11.1964 23.2654 11.3478C22.8999 11.4991 22.4978 11.5387 22.1098 11.4616C21.7219 11.3844 21.3655 11.1939 21.0858 10.9142C20.8061 10.6345 20.6156 10.2781 20.5384 9.89018C20.4613 9.50222 20.5009 9.10009 20.6522 8.73463C20.8036 8.36918 21.06 8.05682 21.3889 7.83706C21.7178 7.6173 22.1044 7.5 22.5 7.5C23.0304 7.5 23.5391 7.71071 23.9142 8.08579C24.2893 8.46086 24.5 8.96957 24.5 9.5Z" fill="black"/>
</svg>
